<svg width="91" height="40" viewBox="0 0 91 40" fill="none" xmlns="http://www.w3.org/2000/svg">
<path fill-rule="evenodd" clip-rule="evenodd" d="M19.4553 0H45.1506V40H19.4553V0Z" fill="#74B737"/>
<path d="M6.96045 17.5912C8.03439 17.5912 8.99857 17.7912 9.85161 18.1912C10.7046 18.5912 11.4264 19.1312 12.0169 19.8119C12.6073 20.4912 13.0602 21.285 13.3763 22.1912C13.6917 23.0981 13.8501 24.0581 13.8501 25.0719C13.8501 26.0981 13.6903 27.065 13.3756 27.9712C13.0602 28.8781 12.6066 29.6719 12.0155 30.3505C11.4236 31.0312 10.7026 31.5684 9.84953 31.9615C8.99649 32.3546 8.033 32.5512 6.95837 32.5512C5.88373 32.5512 4.92024 32.3539 4.06721 31.9608C3.21417 31.5677 2.49242 31.0298 1.90196 30.3505C1.3115 29.6705 0.857893 28.8767 0.542519 27.9698C0.22784 27.065 0.069458 26.0981 0.069458 25.0719C0.069458 24.0581 0.22784 23.0995 0.543908 22.1912C0.859282 21.285 1.3122 20.4912 1.90405 19.8119C2.4945 19.1319 3.21695 18.5912 4.06998 18.1912C4.92302 17.7912 5.88651 17.5912 6.96114 17.5912H6.96045ZM6.96045 19.6312C6.19494 19.6312 5.53293 19.785 4.97651 20.0912C4.4187 20.3981 3.96579 20.8084 3.61637 21.3215C3.26696 21.8346 3.00855 22.4181 2.84044 23.0712C2.67164 23.7243 2.58828 24.3912 2.58828 25.0712C2.58828 25.7505 2.67164 26.4174 2.83975 27.0712C3.00647 27.7236 3.26557 28.3077 3.61498 28.8208C3.9637 29.3339 4.41731 29.745 4.97512 30.0505C5.53224 30.3567 6.19355 30.5105 6.95906 30.5105C7.72457 30.5105 8.38589 30.3567 8.943 30.0505C9.50011 29.7443 9.95372 29.3333 10.3024 28.8208C10.6512 28.3077 10.9103 27.7243 11.0784 27.0705C11.2451 26.4174 11.3298 25.7505 11.3298 25.0705C11.3298 24.3912 11.2465 23.7243 11.0784 23.0705C10.9103 22.4181 10.6519 21.8346 10.3024 21.3215C9.95303 20.8084 9.50011 20.3974 8.943 20.0912C8.38589 19.785 7.72457 19.6312 6.95906 19.6312H6.96045Z" fill="#2C3034"/>
<path d="M36.2485 22.4709C36.1409 22.0571 35.9929 21.6778 35.8054 21.3309C35.6178 20.9847 35.3747 20.684 35.0801 20.4309C34.7849 20.1778 34.439 19.9813 34.0423 19.8413C33.6464 19.7013 33.1865 19.6309 32.6627 19.6309C31.8972 19.6309 31.2352 19.7847 30.6788 20.0909C30.121 20.3978 29.6681 20.8082 29.3187 21.3213C28.9692 21.8344 28.7108 22.4178 28.5427 23.0709C28.3739 23.724 28.2906 24.3909 28.2906 25.0709C28.2906 25.7502 28.3739 26.4171 28.542 27.0709C28.7087 27.7234 28.9678 28.3075 29.3173 28.8206C29.666 29.3337 30.1196 29.7447 30.6774 30.0503C31.2345 30.3565 31.8958 30.5103 32.6613 30.5103C33.2254 30.5103 33.7221 30.4137 34.1521 30.2206C34.5828 30.0275 34.9509 29.7599 35.26 29.4206C35.5692 29.0806 35.8109 28.684 35.986 28.2296C36.1596 27.7771 36.2749 27.2903 36.3284 26.7703H38.7861C38.7319 27.6234 38.5479 28.4034 38.2325 29.1096C37.9157 29.8158 37.4892 30.4254 36.9522 30.9385C36.4153 31.4523 35.7838 31.8489 35.0586 32.1289C34.3341 32.4089 33.5345 32.5496 32.662 32.5496C31.5874 32.5496 30.6239 32.3523 29.7709 31.9592C28.9178 31.5661 28.1961 31.0282 27.6056 30.3489C27.0152 29.6696 26.5616 28.8758 26.2462 27.9696C25.9301 27.0627 25.7724 26.0958 25.7724 25.0696C25.7724 24.0558 25.9308 23.0971 26.2469 22.1889C26.5623 21.2827 27.0152 20.4889 27.607 19.8096C28.1975 19.1296 28.9199 18.5889 29.773 18.1889C30.626 17.7889 31.5895 17.5889 32.6641 17.5889C33.4699 17.5889 34.2285 17.6992 34.9405 17.9199C35.6518 18.1392 36.2812 18.4592 36.823 18.8785C37.3676 19.2992 37.8074 19.8096 38.1429 20.4096C38.4791 21.0096 38.6875 21.6958 38.7681 22.4689H36.2499L36.2485 22.4709Z" fill="white"/>
<path d="M52.5035 27.4514C52.5035 27.9983 52.5973 28.4652 52.7855 28.8514C52.9731 29.239 53.2357 29.5548 53.5705 29.8017C53.9067 30.0479 54.293 30.2279 54.7292 30.341C55.1654 30.4548 55.6392 30.5114 56.1498 30.5114C56.7006 30.5114 57.1709 30.4493 57.5599 30.3224C57.9503 30.1955 58.2657 30.0328 58.5074 29.8328C58.7492 29.6328 58.9242 29.4024 59.0312 29.1431C59.1382 28.8824 59.1924 28.619 59.1924 28.3521C59.1924 27.8045 59.0673 27.4004 58.8193 27.141C58.5707 26.881 58.2983 26.6976 58.0038 26.5907C57.4925 26.4045 56.8993 26.2279 56.2206 26.061C55.5419 25.8955 54.7063 25.6783 53.7129 25.4114C53.0947 25.2528 52.5806 25.0417 52.1708 24.7817C51.7609 24.5217 51.4358 24.2314 51.1941 23.9114C50.9524 23.5921 50.7815 23.2521 50.68 22.8928C50.58 22.5321 50.53 22.1659 50.53 21.7921C50.53 21.0721 50.6814 20.4493 50.9836 19.9231C51.2858 19.3955 51.6852 18.9597 52.1826 18.6128C52.6786 18.2659 53.2426 18.0093 53.8741 17.8424C54.5048 17.6769 55.1432 17.5928 55.7879 17.5928C56.5402 17.5928 57.2487 17.6893 57.9135 17.8824C58.5783 18.0755 59.1625 18.3666 59.6661 18.7535C60.1697 19.1397 60.5692 19.6176 60.8651 20.1838C61.1596 20.7507 61.3076 21.4066 61.3076 22.1535H58.7888C58.7214 21.2335 58.4067 20.5838 57.842 20.2038C57.2779 19.8231 56.5589 19.6335 55.6864 19.6335C55.3905 19.6335 55.089 19.6638 54.7799 19.7231C54.4701 19.7838 54.1881 19.8831 53.9324 20.0238C53.6775 20.1638 53.467 20.3548 53.2982 20.5942C53.1301 20.8335 53.0467 21.1321 53.0467 21.4935C53.0467 22.0004 53.2044 22.3969 53.5191 22.6838C53.8352 22.9707 54.2485 23.1873 54.7591 23.3335C54.8126 23.3473 55.023 23.4024 55.394 23.5031C55.7622 23.6038 56.1762 23.7135 56.6326 23.8341C57.0889 23.9541 57.5356 24.0707 57.9732 24.1838C58.4088 24.2969 58.7214 24.3804 58.9096 24.4335C59.3792 24.5804 59.7891 24.7804 60.1392 25.0335C60.4879 25.2866 60.7797 25.5769 61.0145 25.9038C61.2492 26.23 61.4243 26.5797 61.5382 26.9535C61.6515 27.3259 61.7091 27.7004 61.7091 28.0735C61.7091 28.8735 61.5445 29.5562 61.2159 30.1238C60.8859 30.6893 60.4518 31.1528 59.9155 31.5135C59.3785 31.8721 58.7672 32.1362 58.0816 32.3038C57.3974 32.4707 56.6992 32.5541 55.9872 32.5541C55.1675 32.5541 54.3951 32.4535 53.6698 32.2535C52.9446 32.0535 52.3132 31.7472 51.7762 31.3335C51.2392 30.9197 50.8093 30.3907 50.4869 29.7438C50.1646 29.0969 49.9965 28.3335 49.9833 27.4541H52.5014L52.5035 27.4514ZM64.2279 17.9314H66.5245V20.0914H64.2279V17.9314ZM64.2279 21.8714H66.5245V32.2114H64.2279V21.8714Z" fill="#2C3034"/>
<path d="M78.3176 17.931H80.9963L86.5361 32.211H83.8367L82.4863 28.4317H76.7443L75.3952 32.211H72.7972L78.317 17.931H78.3176ZM77.4313 26.531H81.8229L79.666 20.3917H79.6069L77.4306 26.531H77.4313ZM88.2283 17.931H90.5256V32.211H88.229V17.931H88.2283Z" fill="#2C3034"/>
<path d="M33.1712 6.0786C33.1539 5.89101 33.0865 5.7386 32.9698 5.62343C32.8531 5.50756 32.6961 5.44963 32.4974 5.44963C32.3613 5.44963 32.2439 5.47515 32.1452 5.52549C32.0459 5.57515 31.9625 5.64274 31.8952 5.72549C31.8257 5.80825 31.7715 5.90274 31.7298 6.00963C31.6882 6.11653 31.6534 6.22894 31.6277 6.34756C31.6013 6.4648 31.5826 6.58205 31.5721 6.69722C31.5603 6.81446 31.5513 6.92205 31.5416 7.02136L31.5555 7.03515C31.6562 6.8517 31.7958 6.71515 31.9744 6.62549C32.1515 6.53584 32.3439 6.49101 32.5509 6.49101C32.7802 6.49101 32.9844 6.53101 33.165 6.60963C33.3456 6.68825 33.4984 6.79584 33.6235 6.93377C33.7485 7.0717 33.8444 7.23446 33.9104 7.42205C33.9764 7.61032 34.0097 7.81308 34.0097 8.03101C34.0097 8.25377 33.9736 8.46067 33.9006 8.65032C33.8284 8.84067 33.7235 9.00687 33.588 9.14894C33.4512 9.29101 33.2879 9.40135 33.099 9.47998C32.9094 9.5586 32.7003 9.59722 32.4717 9.59722C32.1327 9.59722 31.8549 9.53515 31.6368 9.41101C31.4193 9.28687 31.2477 9.11653 31.1227 8.90067C30.9963 8.68411 30.9094 8.4317 30.8615 8.14067C30.8129 7.85101 30.7886 7.53791 30.7886 7.20136C30.7886 6.92549 30.8178 6.64963 30.8775 6.36963C30.9365 6.09032 31.0352 5.83584 31.1713 5.60618C31.3075 5.37653 31.4867 5.18963 31.709 5.04618C31.9299 4.90136 32.2036 4.83032 32.5287 4.83032C32.7142 4.83032 32.8878 4.86067 33.0497 4.92205C33.2129 4.98412 33.3574 5.06825 33.4825 5.17722C33.6075 5.28756 33.7103 5.4186 33.7895 5.57032C33.8687 5.72411 33.9124 5.89446 33.9215 6.08205H33.1692L33.1712 6.0786ZM32.446 8.97515C32.5822 8.97515 32.701 8.94756 32.8024 8.89239C32.9045 8.83722 32.9886 8.76687 33.0573 8.6786C33.1254 8.5917 33.1754 8.49032 33.2088 8.37515C33.2414 8.25791 33.2574 8.14067 33.2574 8.01653C33.2574 7.89515 33.2414 7.77722 33.2088 7.66342C33.1761 7.54963 33.1254 7.44963 33.0573 7.36549C32.9879 7.27998 32.9045 7.21101 32.8031 7.1586C32.7024 7.10687 32.5836 7.08067 32.4474 7.08067C32.3113 7.08067 32.1904 7.10618 32.0876 7.15653C31.9834 7.20618 31.8972 7.27377 31.8271 7.3586C31.7562 7.44342 31.7041 7.54342 31.6687 7.65653C31.634 7.77032 31.6159 7.89101 31.6159 8.01722C31.6159 8.14411 31.634 8.26411 31.6694 8.37791C31.7041 8.4917 31.7569 8.59308 31.8278 8.68136C31.8972 8.77101 31.9855 8.84273 32.0883 8.89515C32.1911 8.94825 32.3106 8.97446 32.4481 8.97446L32.446 8.97515Z" fill="white"/>
</svg>
