<svg width="95" height="100" viewBox="0 0 95 100" fill="none" xmlns="http://www.w3.org/2000/svg">
<path d="M92.7562 71.0711C92.2494 69.8699 91.7426 68.5686 91.2358 67.4675C90.4249 65.6657 89.6139 63.964 88.9044 62.3624L88.803 62.2623C81.8089 47.2472 74.308 32.032 66.4017 17.017L66.0976 16.4164C65.2867 14.9149 64.4758 13.3133 63.6648 11.7117C62.6512 9.90991 61.6376 8.00801 60.0158 6.20621C56.7721 2.2022 52.1094 0 47.1426 0C42.0744 0 37.513 2.2022 34.168 6.00601C32.6476 7.80781 31.5326 9.70971 30.5189 11.5115C29.708 13.1131 28.8971 14.7147 28.0862 16.2162L27.7821 16.8168C19.9771 31.8318 12.3748 47.047 5.38072 62.0621L5.27936 62.2623C4.56981 63.8639 3.7589 65.5656 2.94799 67.3674C2.44118 68.4685 1.93436 69.6697 1.42754 70.971C0.109811 74.6747 -0.295644 78.1782 0.211174 81.7818C1.32617 89.2893 6.39436 95.5956 13.3885 98.3984C16.0239 99.4995 18.7607 100 21.5989 100C22.4098 100 23.4235 99.8999 24.2344 99.7998C27.5794 99.3994 31.0257 98.2983 34.3707 96.3964C38.5267 94.0941 42.4798 90.7908 46.9398 85.986C51.3998 90.7908 55.4544 94.0941 59.5089 96.3964C62.8539 98.2983 66.3003 99.3994 69.6453 99.7998C70.4562 99.8999 71.4698 100 72.2808 100C75.1189 100 77.9571 99.4995 80.4912 98.3984C87.5867 95.5956 92.5535 89.1892 93.6685 81.7818C94.4794 78.2783 94.0739 74.7748 92.7562 71.0711ZM47.0412 76.2763C41.5676 69.4695 38.0198 63.0631 36.8035 57.6577C36.2966 55.3554 36.1953 53.3533 36.4994 51.5515C36.7021 49.9499 37.3103 48.5485 38.1212 47.3473C40.0471 44.6446 43.2907 42.9429 47.0412 42.9429C50.7917 42.9429 54.1367 44.5445 55.9612 47.3473C56.7721 48.5485 57.3803 49.9499 57.583 51.5515C57.8871 53.3533 57.7858 55.4555 57.2789 57.6577C56.0626 62.963 52.5148 69.3694 47.0412 76.2763ZM87.4853 80.981C86.7758 86.1862 83.228 90.6907 78.2612 92.6927C75.8285 93.6937 73.193 93.994 70.5576 93.6937C68.0235 93.3934 65.4894 92.5926 62.8539 91.0911C59.2048 89.0891 55.5557 85.986 51.2985 81.3814C57.9885 73.2733 62.043 65.8659 63.5635 59.2593C64.273 56.1562 64.3744 53.3533 64.0703 50.7507C63.6648 48.2482 62.7526 45.9459 61.3335 43.9439C58.1912 39.4394 52.9203 36.8368 47.0412 36.8368C41.1621 36.8368 35.8912 39.5395 32.7489 43.9439C31.3298 45.9459 30.4176 48.2482 30.0121 50.7507C29.6066 53.3533 29.708 56.2563 30.5189 59.2593C32.0394 65.8659 36.1953 73.3734 42.7839 81.4815C38.628 86.0861 34.8776 89.1892 31.2285 91.1912C28.593 92.6927 26.0589 93.4935 23.5248 93.7938C20.788 94.0941 18.1525 93.6937 15.8212 92.7928C10.8544 90.7908 7.30663 86.2863 6.59709 81.0811C6.293 78.5786 6.49572 76.0761 7.50936 73.2733C7.81345 72.2723 8.32027 71.2713 8.82709 70.0701C9.53663 68.4685 10.3475 66.7668 11.1585 65.0651L11.2598 64.8649C18.2539 49.95 25.7548 34.7347 33.5598 19.9199L33.8639 19.3193C34.6748 17.8178 35.4857 16.2162 36.2966 14.7147C37.1076 13.1131 38.0198 11.6116 39.1348 10.3103C41.2635 7.90791 44.1017 6.60661 47.2439 6.60661C50.3862 6.60661 53.2244 7.90791 55.353 10.3103C56.468 11.6116 57.3803 13.1131 58.1912 14.7147C59.0021 16.2162 59.813 17.8178 60.6239 19.3193L60.928 19.9199C68.6317 34.8348 76.1326 50.0501 83.1267 64.965V65.0651C83.9376 66.6667 84.6471 68.4685 85.458 70.0701C85.9649 71.2713 86.4717 72.2723 86.7758 73.2733C87.5867 75.8759 87.8908 78.3784 87.4853 80.981Z" fill="#FF5A5F"/>
</svg>
