<svg width="108" height="16" viewBox="0 0 108 16" fill="none" xmlns="http://www.w3.org/2000/svg">
<path d="M15.1548 8.09295C15.1548 3.97541 18.5517 0.652954 22.8047 0.652954C27.0863 0.652954 30.483 3.97541 30.483 8.09295C30.483 12.1819 27.0863 15.5611 22.8047 15.5611C18.5517 15.5611 15.1548 12.1535 15.1548 8.09295ZM26.8294 8.09295C26.8294 6.04858 25.031 4.23077 22.8047 4.23077C20.6067 4.23077 18.8371 6.04858 18.8371 8.09295C18.8371 10.1659 20.6353 11.9833 22.8047 11.9833C25.031 11.9833 26.8294 10.1659 26.8294 8.09295Z" fill="white"/>
<path d="M92.0053 8.20623C92.0053 3.69125 95.7015 0.652954 99.053 0.652954C101.346 0.652954 102.663 1.33434 103.551 2.66938L103.895 0.908742H107.333V15.2774H103.895L103.465 13.8005C102.462 14.8797 101.202 15.5611 99.0822 15.5611C95.7301 15.5611 92.0053 12.6647 92.0053 8.20623ZM103.695 8.17786C103.695 5.99184 101.889 4.23077 99.6552 4.23077C97.4491 4.23077 95.6727 6.02021 95.6727 8.23525C95.6727 10.2227 97.4777 12.0117 99.6552 12.0117C101.918 11.9833 103.695 10.1943 103.695 8.17786Z" fill="white"/>
<path d="M87.8844 2.6632V1.01605H84.2361V15.1411H87.8844V7.51995C87.8844 5.23109 88.9982 4.03067 90.9749 4.03067C91.114 4.03067 91.2258 4.03067 91.3369 4.05862L92.0053 0.652954C90.112 0.680901 88.7473 1.32282 87.8844 2.6632Z" fill="white"/>
<path d="M50.6203 2.6632V1.01605H46.8608L46.8896 15.1411H50.6496L50.6203 7.51995C50.6203 5.23109 51.7685 4.03067 53.7779 4.03067C53.9213 4.03067 54.0358 4.03067 54.1512 4.05862L54.8399 0.652954C52.8879 0.680901 51.4818 1.32282 50.6203 2.6632Z" fill="white"/>
<path d="M31.9529 9.65892V0.862549H35.6241V9.20474C35.6241 11.049 36.6332 12.1272 38.3987 12.1272C40.3605 12.1272 41.5098 10.9073 41.5098 8.58073V0.862549H45.181V15.2199H41.5098V13.5463C40.6409 14.908 39.2397 15.5606 37.3058 15.5606C33.9987 15.589 31.9529 13.1772 31.9529 9.65892Z" fill="white"/>
<path d="M68.0683 8.07916C68.0683 4.05421 70.9741 0.624878 75.5317 0.653251C79.7756 0.653251 82.7665 4.05421 82.7665 8.022C82.7665 8.41901 82.7379 8.84418 82.681 9.21282L71.7146 9.18444C72.1421 10.9133 73.5659 12.1319 75.7024 12.1602C77.0125 12.1602 78.4085 11.6783 79.2629 10.6012L81.7984 12.6422C80.4877 14.4841 78.1805 15.5612 75.731 15.5612C71.401 15.5047 68.0683 12.2735 68.0683 8.07916ZM79.0353 6.60525C78.8354 5.15949 77.2977 4.02583 75.5317 4.02583C73.7941 4.02583 72.3981 5.04621 71.8569 6.57687L79.0353 6.60525Z" fill="white"/>
<path d="M54.8399 12.173L58.1512 10.4507C58.6935 11.6364 59.8067 12.314 61.3478 12.314C62.7752 12.314 63.3177 11.8621 63.3177 11.2411C63.3177 8.95397 55.4393 10.3379 55.4393 5.08581C55.4393 2.17787 58.0085 0.652954 61.1767 0.652954C63.5744 0.652954 65.7152 1.69765 66.8855 3.67439L63.6027 5.39664C63.1181 4.43664 62.2043 3.9001 61.034 3.9001C59.8922 3.9001 59.35 4.29562 59.35 4.9448C59.35 7.17541 67.2283 5.76335 67.2283 11.1001C67.2283 13.867 64.9448 15.5611 61.2623 15.5611C58.1226 15.533 55.9247 14.5164 54.8399 12.173Z" fill="white"/>
<path d="M0.666656 8.01615C0.666656 3.92847 4.03513 0.652954 8.25277 0.652954C10.9701 0.652954 13.3197 1.99717 14.6784 4.01231L11.508 5.83247C10.772 4.82469 9.61147 4.1529 8.25277 4.1529C6.07316 4.1529 4.31818 5.94447 4.31818 7.9882C4.31818 10.0315 6.10143 11.8231 8.25277 11.8231C9.66806 11.8231 10.9135 11.0954 11.593 10.0036L14.7349 11.851C13.4046 13.9509 10.9984 15.351 8.25277 15.351C4.03513 15.3789 0.666656 12.0196 0.666656 8.01615Z" fill="white"/>
</svg>
