<svg width="200" height="200" viewBox="0 0 200 200" fill="none" xmlns="http://www.w3.org/2000/svg">
<path fill-rule="evenodd" clip-rule="evenodd" d="M99.7732 48C73.713 48 54.7269 65.5347 51.0476 91.0257C50.788 92.8526 51.6067 94.3849 53.1244 94.6195C54.6221 94.8541 55.8902 93.6811 56.1997 91.9341C59.8092 71.6292 77.5321 58.0826 99.7782 58.0826C124.021 58.0826 140.915 74.9734 140.915 99.2116C140.915 120.505 126.308 138.968 106.992 142.756C105.245 143.106 104.082 144.389 104.336 145.881C104.586 147.393 106.119 148.212 107.941 147.952C133.427 144.339 151 125.302 151 99.2116C151 69.1684 129.822 48 99.7782 48H99.7732ZM84.5464 98.8422C87.0326 95.7376 89.9881 92.3534 93.4828 88.9343C106.812 75.4925 121.66 74.674 123.018 76.1165C124.495 77.514 123.602 92.2386 110.197 105.72C106.777 109.214 103.433 112.169 100.287 114.655V124.608C100.287 128.002 100.287 128.187 97.951 129.929C97.7013 130.113 97.302 130.428 96.7628 130.842C94.4713 132.619 89.8134 136.233 84.8959 139.252C83.4182 140.151 82.175 139.407 83.1486 138.089C85.344 135.075 87.1818 131.815 88.6252 128.376C89.7135 125.811 89.7135 123.48 88.6252 121.458C84.7411 122.706 81.551 122.312 79.1846 120.021C76.7733 117.69 76.4638 114.425 77.7069 110.502C76.6195 109.964 75.4228 109.685 74.2097 109.685C72.9966 109.685 71.7999 109.964 70.7125 110.502C67.7571 111.59 64.5719 113.452 60.9924 115.943C59.5945 116.951 58.8556 115.708 59.8292 114.231C62.9744 109.01 66.8484 104.128 68.5309 102.012L69.1549 101.213C70.9023 98.8822 71.1019 98.8822 74.986 98.8822H84.4316L84.5464 98.8422V98.8422ZM72.6146 119.826C72.8243 120.056 72.1953 120.56 71.1668 121.393C68.3462 123.674 62.5101 128.396 62.5101 136.532C70.6876 136.532 75.4204 130.772 77.7119 127.982C78.5556 126.954 79.0698 126.33 79.2994 126.549C80.0782 127.323 77.4722 133.657 73.004 138.089C70.4638 140.593 67.4314 142.541 64.0988 143.812C60.7662 145.083 57.206 145.648 53.6436 145.472C53.6436 136.537 56.5591 130.547 61.0323 126.12C65.4955 121.653 71.7959 119.047 72.6096 119.906V119.826H72.6146Z" fill="white"/>
</svg>
