<svg width="200" height="200" viewBox="0 0 200 200" fill="none" xmlns="http://www.w3.org/2000/svg">
<path fill-rule="evenodd" clip-rule="evenodd" d="M60.0863 66.375H100.235V128.875H60.0863V66.375Z" fill="#74B737"/>
<path d="M40.5632 93.8612C42.2412 93.8612 43.7478 94.1737 45.0806 94.7987C46.4135 95.4237 47.5412 96.2675 48.4638 97.331C49.3864 98.3925 50.0941 99.6328 50.588 101.049C51.0807 102.466 51.3282 103.966 51.3282 105.55C51.3282 107.153 51.0786 108.664 50.5869 110.08C50.0941 111.497 49.3853 112.737 48.4617 113.798C47.5369 114.861 46.4102 115.701 45.0774 116.315C43.7445 116.929 42.2391 117.236 40.5599 117.236C38.8808 117.236 37.3754 116.928 36.0425 116.314C34.7096 115.7 33.5819 114.859 32.6593 113.798C31.7367 112.735 31.028 111.495 30.5352 110.078C30.0435 108.664 29.796 107.153 29.796 105.55C29.796 103.966 30.0435 102.468 30.5373 101.049C31.0301 99.6328 31.7378 98.3925 32.6626 97.331C33.5852 96.2685 34.714 95.4237 36.0468 94.7987C37.3797 94.1737 38.8852 93.8612 40.5643 93.8612H40.5632ZM40.5632 97.0487C39.3671 97.0487 38.3327 97.289 37.4633 97.7675C36.5917 98.247 35.884 98.8881 35.3381 99.6899C34.7921 100.492 34.3884 101.403 34.1257 102.424C33.8619 103.444 33.7317 104.486 33.7317 105.549C33.7317 106.61 33.8619 107.652 34.1246 108.674C34.3851 109.693 34.7899 110.606 35.3359 111.408C35.8808 112.209 36.5895 112.852 37.4611 113.329C38.3316 113.807 39.3649 114.048 40.561 114.048C41.7571 114.048 42.7904 113.807 43.6609 113.329C44.5314 112.85 45.2402 112.208 45.7851 111.408C46.3299 110.606 46.7348 109.694 46.9975 108.673C47.2579 107.652 47.3904 106.61 47.3904 105.548C47.3904 104.486 47.2601 103.444 46.9975 102.423C46.7348 101.403 46.331 100.492 45.7851 99.6899C45.2391 98.8881 44.5314 98.2459 43.6609 97.7675C42.7904 97.289 41.7571 97.0487 40.561 97.0487H40.5632Z" fill="#2C3034"/>
<path d="M86.3258 101.486C86.1576 100.839 85.9264 100.247 85.6333 99.7047C85.3403 99.1637 84.9604 98.6939 84.5002 98.2984C84.0389 97.9029 83.4984 97.5958 82.8786 97.3771C82.2599 97.1583 81.5414 97.0484 80.723 97.0484C79.5269 97.0484 78.4925 97.2887 77.6231 97.7672C76.7515 98.2467 76.0438 98.8878 75.4979 99.6896C74.9519 100.491 74.5482 101.403 74.2855 102.423C74.0217 103.444 73.8915 104.486 73.8915 105.548C73.8915 106.61 74.0217 107.652 74.2844 108.673C74.5449 109.693 74.9497 110.606 75.4957 111.407C76.0406 112.209 76.7493 112.851 77.6209 113.329C78.4914 113.807 79.5247 114.047 80.7208 114.047C81.6022 114.047 82.3782 113.896 83.0501 113.595C83.723 113.293 84.2983 112.875 84.7813 112.345C85.2643 111.813 85.642 111.194 85.9156 110.484C86.1869 109.777 86.3671 109.016 86.4507 108.204H90.2908C90.2061 109.537 89.9185 110.755 89.4257 111.859C88.9308 112.962 88.2644 113.915 87.4253 114.717C86.5863 115.519 85.5997 116.139 84.4665 116.576C83.3345 117.014 82.0852 117.234 80.7219 117.234C79.0428 117.234 77.5373 116.926 76.2045 116.311C74.8716 115.697 73.7439 114.857 72.8213 113.795C71.8987 112.734 71.1899 111.493 70.6972 110.077C70.2033 108.66 69.9569 107.15 69.9569 105.546C69.9569 103.962 70.2044 102.464 70.6982 101.045C71.191 99.6292 71.8987 98.3889 72.8235 97.3275C73.746 96.265 74.8749 95.4202 76.2077 94.7952C77.5406 94.1702 79.0461 93.8577 80.7252 93.8577C81.9842 93.8577 83.1695 94.0301 84.282 94.3749C85.3935 94.7176 86.3768 95.2176 87.2235 95.8728C88.0744 96.5301 88.7615 97.3275 89.2857 98.265C89.8111 99.2025 90.1367 100.275 90.2626 101.483H86.328L86.3258 101.486Z" fill="white"/>
<path d="M111.724 109.268C111.724 110.122 111.871 110.852 112.165 111.455C112.458 112.061 112.868 112.554 113.391 112.94C113.917 113.325 114.52 113.606 115.202 113.783C115.883 113.961 116.624 114.049 117.421 114.049C118.282 114.049 119.017 113.952 119.625 113.754C120.235 113.556 120.728 113.301 121.105 112.989C121.483 112.676 121.757 112.316 121.924 111.911C122.091 111.504 122.176 111.092 122.176 110.675C122.176 109.82 121.98 109.188 121.593 108.783C121.204 108.377 120.779 108.09 120.318 107.923C119.52 107.632 118.593 107.356 117.532 107.095C116.472 106.837 115.166 106.497 113.614 106.08C112.648 105.833 111.845 105.503 111.204 105.097C110.564 104.69 110.056 104.237 109.678 103.737C109.301 103.238 109.034 102.706 108.875 102.145C108.719 101.581 108.641 101.009 108.641 100.425C108.641 99.3002 108.877 98.3271 109.349 97.5049C109.821 96.6806 110.446 95.9995 111.223 95.4575C111.998 94.9155 112.879 94.5146 113.866 94.2539C114.851 93.9952 115.849 93.8638 116.856 93.8638C118.031 93.8638 119.139 94.0146 120.177 94.3164C121.216 94.6181 122.129 95.0728 122.916 95.6773C123.703 96.2808 124.327 97.0276 124.789 97.9123C125.249 98.798 125.481 99.8228 125.481 100.99H121.545C121.44 99.5523 120.948 98.5373 120.066 97.9435C119.184 97.3487 118.061 97.0523 116.698 97.0523C116.235 97.0523 115.764 97.0998 115.281 97.1924C114.797 97.2873 114.356 97.4424 113.957 97.6623C113.559 97.881 113.23 98.1795 112.966 98.5534C112.703 98.9273 112.573 99.3939 112.573 99.9586C112.573 100.751 112.819 101.37 113.311 101.819C113.805 102.267 114.451 102.605 115.249 102.834C115.332 102.855 115.661 102.941 116.241 103.099C116.816 103.256 117.463 103.427 118.176 103.616C118.889 103.803 119.587 103.986 120.271 104.162C120.951 104.339 121.44 104.469 121.734 104.552C122.468 104.782 123.108 105.094 123.655 105.49C124.2 105.885 124.656 106.339 125.023 106.85C125.389 107.359 125.663 107.906 125.841 108.49C126.018 109.072 126.108 109.657 126.108 110.24C126.108 111.49 125.851 112.557 125.337 113.444C124.822 114.327 124.143 115.051 123.305 115.615C122.466 116.175 121.511 116.588 120.44 116.85C119.371 117.111 118.28 117.241 117.167 117.241C115.887 117.241 114.68 117.084 113.547 116.771C112.413 116.459 111.427 115.98 110.588 115.334C109.749 114.687 109.077 113.861 108.573 112.85C108.07 111.839 107.807 110.646 107.786 109.272H111.721L111.724 109.268ZM130.044 94.3929H133.632V97.7679H130.044V94.3929ZM130.044 100.549H133.632V116.705H130.044V100.549Z" fill="#2C3034"/>
<path d="M152.059 94.3922H156.244L164.9 116.705H160.682L158.572 110.8H149.6L147.493 116.705H143.433L152.058 94.3922H152.059ZM150.674 107.83H157.536L154.166 98.237H154.073L150.673 107.83H150.674ZM167.544 94.3922H171.134V116.705H167.545V94.3922H167.544Z" fill="#2C3034"/>
<path d="M81.5176 75.8728C81.4905 75.5797 81.3852 75.3415 81.2028 75.1616C81.0205 74.9806 80.7752 74.89 80.4648 74.89C80.252 74.89 80.0686 74.9299 79.9145 75.0086C79.7593 75.0862 79.629 75.1918 79.5237 75.3211C79.4152 75.4504 79.3305 75.598 79.2654 75.765C79.2003 75.9321 79.146 76.1077 79.1058 76.2931C79.0646 76.4762 79.0353 76.6594 79.019 76.8394C79.0006 77.0226 78.9864 77.1907 78.9713 77.3459L78.993 77.3674C79.1503 77.0808 79.3685 76.8674 79.6475 76.7273C79.9242 76.5872 80.2249 76.5172 80.5483 76.5172C80.9065 76.5172 81.2256 76.5797 81.5078 76.7025C81.79 76.8254 82.0288 76.9935 82.2242 77.209C82.4196 77.4245 82.5694 77.6788 82.6725 77.9719C82.7756 78.2661 82.8277 78.5829 82.8277 78.9234C82.8277 79.2715 82.7712 79.5948 82.6573 79.8911C82.5444 80.1885 82.3805 80.4482 82.1688 80.6702C81.955 80.8922 81.7 81.0646 81.4047 81.1874C81.1084 81.3103 80.7817 81.3706 80.4246 81.3706C79.8949 81.3706 79.4608 81.2737 79.12 81.0797C78.7802 80.8857 78.5121 80.6196 78.3168 80.2823C78.1192 79.9439 77.9835 79.5495 77.9086 79.0948C77.8327 78.6422 77.7947 78.153 77.7947 77.6271C77.7947 77.1961 77.8403 76.765 77.9336 76.3275C78.0259 75.8911 78.18 75.4935 78.3927 75.1346C78.6055 74.7758 78.8855 74.4838 79.2328 74.2596C79.578 74.0334 80.0056 73.9224 80.5136 73.9224C80.8034 73.9224 81.0748 73.9698 81.3277 74.0657C81.5827 74.1627 81.8085 74.2941 82.0039 74.4644C82.1992 74.6368 82.3599 74.8415 82.4836 75.0786C82.6073 75.3189 82.6757 75.5851 82.6898 75.8782H81.5144L81.5176 75.8728ZM80.3844 80.3987C80.5972 80.3987 80.7828 80.3556 80.9413 80.2693C81.1008 80.1831 81.2321 80.0732 81.3396 79.9353C81.446 79.7995 81.5241 79.6411 81.5762 79.4612C81.6272 79.278 81.6522 79.0948 81.6522 78.9008C81.6522 78.7112 81.6272 78.5269 81.5762 78.3491C81.5252 78.1713 81.446 78.015 81.3396 77.8836C81.2311 77.7499 81.1008 77.6422 80.9423 77.5603C80.785 77.4795 80.5994 77.4385 80.3866 77.4385C80.1739 77.4385 79.985 77.4784 79.8244 77.5571C79.6616 77.6346 79.527 77.7402 79.4174 77.8728C79.3066 78.0053 79.2252 78.1616 79.1699 78.3383C79.1156 78.5161 79.0874 78.7047 79.0874 78.9019C79.0874 79.1002 79.1156 79.2877 79.171 79.4655C79.2252 79.6433 79.3077 79.8017 79.4184 79.9396C79.527 80.0797 79.6648 80.1918 79.8255 80.2737C79.9861 80.3566 80.1728 80.3976 80.3877 80.3976L80.3844 80.3987Z" fill="white"/>
</svg>
