<svg width="50" height="50" viewBox="0 0 50 50" fill="none" xmlns="http://www.w3.org/2000/svg">
<mask id="mask0" mask-type="alpha" maskUnits="userSpaceOnUse" x="0" y="0" width="50" height="50">
<rect width="50" height="50" rx="25" fill="#C4C4C4"/>
</mask>
<g mask="url(#mask0)">
<rect width="50" height="50" transform="translate(0.209961 0.136719)" fill="black"/>
<path d="M32.041 22.8755C32.0803 27.1129 35.7582 28.5229 35.799 28.5409C35.7679 28.6403 35.2113 30.5503 33.8613 32.5232C32.6942 34.229 31.483 35.9284 29.575 35.9636C27.7002 35.9981 27.0973 34.8518 24.9538 34.8518C22.811 34.8518 22.1412 35.9284 20.3665 35.9981C18.5247 36.0679 17.1222 34.1537 15.9456 32.4542C13.5411 28.9779 11.7035 22.6311 14.1709 18.3469C15.3966 16.2193 17.5871 14.872 19.9646 14.8375C21.7731 14.803 23.4801 16.0542 24.5858 16.0542C25.6907 16.0542 27.7651 14.5495 29.9458 14.7705C30.8588 14.8085 33.4215 15.1393 35.067 17.5479C34.9344 17.6301 32.0092 19.333 32.041 22.8755V22.8755ZM28.5175 12.4706C29.4953 11.287 30.1534 9.6394 29.9738 8C28.5644 8.05665 26.8601 8.93919 25.8492 10.1221C24.9432 11.1697 24.1497 12.8463 24.3638 14.4532C25.9348 14.5748 27.5396 13.6549 28.5175 12.4706Z" fill="white"/>
</g>
</svg>
