<svg width="74" height="74" viewBox="0 0 74 74" fill="none" xmlns="http://www.w3.org/2000/svg">
<path d="M36.985 51.4201V43.5977" stroke="white" stroke-width="3.5" stroke-linecap="round" stroke-linejoin="round"/>
<path fill-rule="evenodd" clip-rule="evenodd" d="M56.0857 16.4346C61.2965 16.4346 65.4898 20.6587 65.4898 25.8696V36.4762C57.9048 40.9162 47.884 43.5987 36.969 43.5987C26.054 43.5987 16.064 40.9162 8.479 36.4762V25.8387C8.479 20.6279 12.7032 16.4346 17.914 16.4346H56.0857Z" stroke="white" stroke-width="3.5" stroke-linecap="round" stroke-linejoin="round"/>
<path d="M47.7767 16.4212V15.2927C47.7767 11.531 44.7242 8.47852 40.9625 8.47852H33.0075C29.2459 8.47852 26.1934 11.531 26.1934 15.2927V16.4212" stroke="white" stroke-width="3.5" stroke-linecap="round" stroke-linejoin="round"/>
<path d="M8.55469 47.7393L9.13744 55.4753C9.5321 60.6893 13.8765 64.7192 19.1028 64.7192H54.8664C60.0926 64.7192 64.437 60.6893 64.8317 55.4753L65.4144 47.7393" stroke="white" stroke-width="3.5" stroke-linecap="round" stroke-linejoin="round"/>
</svg>
