<svg width="74" height="74" viewBox="0 0 74 74" fill="none" xmlns="http://www.w3.org/2000/svg">
<path d="M55.1538 33.5983C59.4551 32.994 62.7666 29.3063 62.7758 24.8386C62.7758 20.4356 59.5661 16.7849 55.3573 16.0942" stroke="white" stroke-width="3.5" stroke-linecap="round" stroke-linejoin="round"/>
<path d="M60.8296 43.9385C64.9952 44.5613 67.9028 46.0197 67.9028 49.026C67.9028 51.0949 66.5338 52.4392 64.3199 53.2841" stroke="white" stroke-width="3.5" stroke-linecap="round" stroke-linejoin="round"/>
<path fill-rule="evenodd" clip-rule="evenodd" d="M36.6504 45.2134C26.7406 45.2134 18.2769 46.715 18.2769 52.712C18.2769 58.706 26.6882 60.2508 36.6504 60.2508C46.5603 60.2508 55.0209 58.7646 55.0209 52.7645C55.0209 46.7643 46.6127 45.2134 36.6504 45.2134Z" stroke="white" stroke-width="3.5" stroke-linecap="round" stroke-linejoin="round"/>
<path fill-rule="evenodd" clip-rule="evenodd" d="M36.6508 36.6545C43.1536 36.6545 48.4261 31.3851 48.4261 24.8793C48.4261 18.3765 43.1536 13.104 36.6508 13.104C30.1481 13.104 24.8756 18.3765 24.8756 24.8793C24.8509 31.3604 30.0833 36.6329 36.5645 36.6545H36.6508Z" stroke="white" stroke-width="3.5" stroke-linecap="round" stroke-linejoin="round"/>
<path d="M18.1449 33.5983C13.8406 32.994 10.5322 29.3063 10.5229 24.8386C10.5229 20.4356 13.7327 16.7849 17.9414 16.0942" stroke="white" stroke-width="3.5" stroke-linecap="round" stroke-linejoin="round"/>
<path d="M12.4687 43.9385C8.30309 44.5613 5.39551 46.0197 5.39551 49.026C5.39551 51.0949 6.76451 52.4392 8.97834 53.2841" stroke="white" stroke-width="3.5" stroke-linecap="round" stroke-linejoin="round"/>
</svg>
