<svg width="120" height="120" viewBox="0 0 120 120" fill="none" xmlns="http://www.w3.org/2000/svg">
<path d="M52.1388 12.9984C56.1426 7.9061 63.8574 7.9061 67.8612 12.9984L68.9634 14.4002C71.4691 17.5872 75.651 18.9459 79.5514 17.8405L81.267 17.3542C87.4993 15.5878 93.7407 20.1225 93.9867 26.5956L94.0544 28.3775C94.2083 32.4287 96.7929 35.986 100.598 37.3842L102.272 37.9993C108.352 40.2335 110.736 47.5707 107.13 52.9521L106.138 54.4336C103.881 57.8015 103.881 62.1985 106.138 65.5664L107.13 67.0479C110.736 72.4293 108.352 79.7665 102.272 82.0007L100.598 82.6158C96.7929 84.014 94.2083 87.5713 94.0544 91.6225L93.9867 93.4044C93.7407 99.8775 87.4993 104.412 81.267 102.646L79.5514 102.16C75.651 101.054 71.4691 102.413 68.9634 105.6L67.8612 107.002C63.8574 112.094 56.1426 112.094 52.1388 107.002L51.0366 105.6C48.5309 102.413 44.349 101.054 40.4486 102.16L38.733 102.646C32.5007 104.412 26.2593 99.8775 26.0133 93.4044L25.9456 91.6225C25.7917 87.5713 23.2071 84.014 19.4019 82.6158L17.728 82.0007C11.6478 79.7665 9.26376 72.4293 12.8696 67.0479L13.8622 65.5664C16.1189 62.1986 16.1189 57.8015 13.8622 54.4336L12.8696 52.9521C9.26376 47.5707 11.6478 40.2335 17.728 37.9993L19.4019 37.3842C23.2071 35.986 25.7917 32.4287 25.9456 28.3775L26.0133 26.5956C26.2593 20.1225 32.5007 15.5878 38.733 17.3542L40.4486 17.8405C44.349 18.9459 48.5309 17.5872 51.0366 14.4002L52.1388 12.9984Z" fill="url(#paint0_linear)"/>
<defs>
<linearGradient id="paint0_linear" x1="35.0286" y1="-61.2381" x2="220.063" y2="104.527" gradientUnits="userSpaceOnUse">
<stop stop-color="#E8FF5E"/>
<stop offset="1" stop-color="#C726FF"/>
</linearGradient>
</defs>
</svg>
