<svg width="20" height="20" viewBox="0 0 20 20" fill="none" xmlns="http://www.w3.org/2000/svg">
<path fill-rule="evenodd" clip-rule="evenodd" d="M10 20C15.523 20 20 15.523 20 10C20 4.477 15.523 0 10 0C4.477 0 0 4.477 0 10C0 15.523 4.477 20 10 20ZM5.403 5.403C5.59053 5.21553 5.84484 5.11021 6.11 5.11021C6.37516 5.11021 6.62947 5.21553 6.817 5.403L10 8.586L13.183 5.403C13.2752 5.30749 13.3856 5.23131 13.5076 5.1789C13.6296 5.12649 13.7608 5.0989 13.8936 5.09775C14.0264 5.0966 14.1581 5.1219 14.281 5.17218C14.4039 5.22246 14.5155 5.29671 14.6094 5.3906C14.7033 5.4845 14.7775 5.59615 14.8278 5.71905C14.8781 5.84194 14.9034 5.97362 14.9023 6.1064C14.9011 6.23918 14.8735 6.3704 14.8211 6.4924C14.7687 6.61441 14.6925 6.72475 14.597 6.817L11.414 10L14.597 13.183C14.7792 13.3716 14.88 13.6242 14.8777 13.8864C14.8754 14.1486 14.7702 14.3994 14.5848 14.5848C14.3994 14.7702 14.1486 14.8754 13.8864 14.8777C13.6242 14.88 13.3716 14.7792 13.183 14.597L10 11.414L6.817 14.597C6.6284 14.7792 6.3758 14.88 6.1136 14.8777C5.8514 14.8754 5.60059 14.7702 5.41518 14.5848C5.22977 14.3994 5.1246 14.1486 5.12233 13.8864C5.12005 13.6242 5.22084 13.3716 5.403 13.183L8.586 10L5.403 6.817C5.21553 6.62947 5.11021 6.37516 5.11021 6.11C5.11021 5.84484 5.21553 5.59053 5.403 5.403V5.403Z" fill="#F41F16"/>
</svg>
