<svg width="60" height="60" viewBox="0 0 60 60" fill="none" xmlns="http://www.w3.org/2000/svg">
<path d="M5.00049 27.6963C5.12549 33.5413 5.47549 43.5388 5.52549 44.6413C5.70299 46.9988 6.60549 49.3813 8.01049 51.0613C9.96549 53.4188 12.373 54.4713 15.7305 54.4713C20.3705 54.4963 25.4855 54.4963 30.453 54.4963C35.4405 54.4963 40.2805 54.4963 44.368 54.4713C47.678 54.4713 50.1605 53.3913 52.0905 51.0613C53.4955 49.3813 54.398 46.9738 54.5255 44.6413C54.5755 43.7138 54.8255 32.8613 54.9755 27.6963H5.00049Z" fill="url(#paint0_linear)"/>
<path d="M28.1133 38.4604V41.6954C28.1133 42.7304 28.9533 43.5704 29.9883 43.5704C31.0233 43.5704 31.8633 42.7304 31.8633 41.6954V38.4604C31.8633 37.4254 31.0233 36.5854 29.9883 36.5854C28.9533 36.5854 28.1133 37.4254 28.1133 38.4604" fill="#130F26"/>
<path fill-rule="evenodd" clip-rule="evenodd" d="M25.528 36.391C25.278 37.2985 24.4055 37.8785 23.4605 37.7535C22.4787 37.6165 21.5035 37.4943 20.5375 37.3733C15.2288 36.7083 10.1959 36.0779 5.84299 33.2035C5.31549 32.8585 5.00049 32.2685 5.00049 31.6385V20.9735C5.00049 15.7235 9.28049 11.4535 14.543 11.4535H19.4605C19.9305 7.82348 23.0055 5.00098 26.7605 5.00098H33.2155C36.968 5.00098 40.0455 7.82348 40.5155 11.4535H45.458C50.7055 11.4535 54.9755 15.7235 54.9755 20.9735V31.6385C54.9755 32.2685 54.658 32.856 54.1355 33.2035C49.7563 36.1024 44.6807 36.7353 39.3164 37.4043C38.3661 37.5228 37.4067 37.6424 36.4405 37.776C36.353 37.7885 36.268 37.7935 36.183 37.7935C35.3355 37.7935 34.578 37.221 34.3655 36.381C33.8605 34.391 32.053 32.9985 29.9755 32.9985C27.8705 32.9985 26.083 34.361 25.528 36.391ZM33.2155 8.75098H26.7605C25.078 8.75098 23.673 9.90098 23.253 11.4535H36.7205C36.3005 9.90098 34.8955 8.75098 33.2155 8.75098Z" fill="url(#paint1_linear)"/>
<defs>
<linearGradient id="paint0_linear" x1="19.0411" y1="12.5947" x2="44.8411" y2="61.0399" gradientUnits="userSpaceOnUse">
<stop stop-color="#13A8FC"/>
<stop offset="1" stop-color="#00FFC2"/>
</linearGradient>
<linearGradient id="paint1_linear" x1="19.0411" y1="-13.4773" x2="53.8453" y2="39.9327" gradientUnits="userSpaceOnUse">
<stop stop-color="#13A8FC"/>
<stop offset="1" stop-color="#00FFC2"/>
</linearGradient>
</defs>
</svg>
