<svg width="120" height="120" viewBox="0 0 120 120" fill="none" xmlns="http://www.w3.org/2000/svg">
<path d="M54.3595 9.71631C57.9239 7.99978 62.0761 7.99978 65.6405 9.71632L95.7966 24.2387C99.361 25.9553 101.95 29.2015 102.83 33.0585L110.278 65.6901C111.158 69.5471 110.235 73.5951 107.768 76.6882L86.8992 102.857C84.4325 105.95 80.6916 107.751 76.7354 107.751H43.2646C39.3084 107.751 35.5675 105.95 33.1008 102.857L12.2322 76.6882C9.76549 73.5951 8.84156 69.5471 9.7219 65.6901L17.1698 33.0585C18.0502 29.2015 20.639 25.9553 24.2034 24.2387L54.3595 9.71631Z" fill="url(#paint0_linear)"/>
<defs>
<linearGradient id="paint0_linear" x1="36.781" y1="-52.7302" x2="159.756" y2="71.1012" gradientUnits="userSpaceOnUse">
<stop stop-color="#13A8FC"/>
<stop offset="1" stop-color="#00FFC2"/>
</linearGradient>
</defs>
</svg>
