<svg width="60" height="60" viewBox="0 0 60 60" fill="none" xmlns="http://www.w3.org/2000/svg">
<path d="M30.2162 55C29.9067 55 29.5971 54.9289 29.3177 54.7843L20.315 50.124C17.7604 48.8002 15.762 47.3146 14.2016 45.5839C10.7862 41.7988 8.886 36.94 8.8558 31.8998L8.7501 15.3107C8.73751 13.3961 9.97328 11.6776 11.8206 11.0304L28.3513 5.26697C29.3328 4.91641 30.4276 4.91151 31.4268 5.24981L48.0204 10.8171C49.8778 11.4373 51.1337 13.1436 51.1438 15.0557L51.2495 31.6571C51.2822 36.6899 49.4474 41.5684 46.0849 45.3951C44.5421 47.1504 42.5613 48.658 40.0319 50.0064L31.1097 54.772C30.8329 54.9216 30.5258 54.9975 30.2162 55" fill="url(#paint0_linear)"/>
<path d="M30.9763 18.6136L33.2028 23.0879C33.3668 23.4121 33.6799 23.6372 34.041 23.6872L39.042 24.4156C39.3341 24.4566 39.5992 24.6107 39.7782 24.8458C39.9552 25.0779 40.0312 25.3721 39.9882 25.6612C39.9532 25.9013 39.8402 26.1234 39.6672 26.2935L36.0434 29.8063C35.7783 30.0514 35.6583 30.4146 35.7223 30.7698L36.6145 35.7083C36.7095 36.3046 36.3144 36.8669 35.7223 36.98C35.4783 37.019 35.2282 36.978 35.0082 36.8659L30.5472 34.5417C30.2161 34.3746 29.8251 34.3746 29.494 34.5417L25.033 36.8659C24.4849 37.157 23.8058 36.9589 23.5007 36.4187C23.3877 36.2036 23.3477 35.9584 23.3847 35.7193L24.2769 30.7798C24.3409 30.4256 24.2199 30.0604 23.9558 29.8153L20.332 26.3045C19.9009 25.8883 19.8879 25.203 20.303 24.7717C20.312 24.7627 20.322 24.7527 20.332 24.7427C20.5041 24.5676 20.7301 24.4566 20.9742 24.4276L25.9752 23.6982C26.3353 23.6472 26.6484 23.4241 26.8134 23.0979L28.9599 18.6136C29.1509 18.2294 29.547 17.9903 29.9771 18.0003H30.1111C30.4842 18.0453 30.8093 18.2764 30.9763 18.6136" fill="url(#paint1_linear)"/>
<defs>
<linearGradient id="paint0_linear" x1="20.6905" y1="-23.1746" x2="78.004" y2="25.8809" gradientUnits="userSpaceOnUse">
<stop stop-color="#13A8FC"/>
<stop offset="1" stop-color="#00FFC2"/>
</linearGradient>
<linearGradient id="paint1_linear" x1="11.6667" y1="-1.57576" x2="43.3844" y2="3.41745" gradientUnits="userSpaceOnUse">
<stop stop-color="#E341AC"/>
<stop offset="1" stop-color="#E1372F"/>
</linearGradient>
</defs>
</svg>
