<svg width="100" height="100" viewBox="0 0 100 100" fill="none" xmlns="http://www.w3.org/2000/svg">
<path d="M85.9385 76.2132L64.7771 64.0187C61.8042 62.3113 58.0026 63.3268 56.2819 66.2923C55.6153 67.4605 55.354 68.7455 55.4801 69.9946V93.8264C55.4801 97.2322 58.2548 100 61.6781 100C65.0924 100 67.8671 97.2322 67.8671 93.8264V80.1222L79.7225 86.9519C82.6954 88.6682 86.506 87.6438 88.2177 84.6783C89.9383 81.7128 88.9204 77.9206 85.9385 76.2132Z" fill="#29B5E8"/>
<path d="M33.3098 50.0809C33.3458 47.8792 32.1837 45.8303 30.2739 44.725L9.11246 32.5395C8.19357 32.0093 7.13956 31.7308 6.08554 31.7308C3.91444 31.7308 1.8965 32.89 0.815457 34.7592C-0.860158 37.6528 0.139807 41.3641 3.0406 43.0356L15.2384 50.0539L3.0406 57.0812C1.63525 57.89 0.626275 59.193 0.211876 60.7566C-0.211533 62.3202 0.0046759 63.9558 0.815457 65.3576C1.8965 67.2268 3.91444 68.386 6.07653 68.386C7.13956 68.386 8.19357 68.1074 9.11246 67.5772L30.2739 55.3918C32.1657 54.2954 33.3278 52.2645 33.3098 50.0809Z" fill="#29B5E8"/>
<path d="M13.9141 23.9036L35.0755 36.0891C37.5439 37.5179 40.5888 37.0506 42.5347 35.1545C43.7689 34.0222 44.5346 32.4047 44.5346 30.6074V6.18259C44.5346 2.76779 41.76 0 38.3457 0C34.9224 0 32.1477 2.76779 32.1477 6.18259V20.0844L20.1301 13.165C17.1572 11.4486 13.3556 12.464 11.6349 15.4295C9.91425 18.395 10.9412 22.1872 13.9141 23.9036Z" fill="#29B5E8"/>
<path d="M61.498 51.0693C61.498 51.5366 61.2278 52.1836 60.8944 52.5251L52.5073 60.8914C52.174 61.2238 51.5164 61.4934 51.0479 61.4934H48.9129C48.4444 61.4934 47.7868 61.2238 47.4535 60.8914L39.0574 52.5251C38.7241 52.1836 38.4538 51.5366 38.4538 51.0693V48.9395C38.4538 48.4633 38.7241 47.8162 39.0574 47.4838L47.4535 39.1085C47.7868 38.776 48.4444 38.5064 48.9129 38.5064H51.0479C51.5164 38.5064 52.174 38.776 52.5073 39.1085L60.8944 47.4838C61.2278 47.8162 61.498 48.4633 61.498 48.9395V51.0693ZM54.0118 50.0449V49.955C54.0118 49.6135 53.8136 49.1372 53.5704 48.8856L51.093 46.4234C50.8497 46.1717 50.3723 45.974 50.021 45.974H49.9309C49.5885 45.974 49.1111 46.1717 48.8588 46.4234L46.3904 48.8856C46.1472 49.1283 45.949 49.6045 45.949 49.955V50.0449C45.949 50.3953 46.1472 50.8716 46.3904 51.1142L48.8588 53.5855C49.1111 53.8281 49.5885 54.0258 49.9309 54.0258H50.021C50.3723 54.0258 50.8497 53.8281 51.093 53.5855L53.5704 51.1142C53.8136 50.8716 54.0118 50.3953 54.0118 50.0449Z" fill="#29B5E8"/>
<path d="M64.7771 36.0891L85.9385 23.9036C88.9114 22.1962 89.9384 18.395 88.2177 15.4295C86.4971 12.464 82.6954 11.4486 79.7225 13.165L67.8671 19.9946V6.1826C67.8671 2.76779 65.0924 0 61.6781 0C58.2548 0 55.4801 2.76779 55.4801 6.1826V30.1222C55.363 31.3623 55.6063 32.6563 56.2819 33.8245C58.0026 36.79 61.8042 37.8055 64.7771 36.0891Z" fill="#29B5E8"/>
<path d="M39.3186 63.2996C37.9133 63.03 36.4088 63.2546 35.0755 64.0185L13.9141 76.2129C10.9412 77.9203 9.91425 81.7126 11.6349 84.6781C13.3556 87.6525 17.1572 88.668 20.1301 86.9516L32.1477 80.0321V93.8261C32.1477 97.232 34.9224 99.9997 38.3457 99.9997C41.76 99.9997 44.5346 97.232 44.5346 93.8261V69.4013C44.5346 66.319 42.2735 63.7669 39.3186 63.2996Z" fill="#29B5E8"/>
<path d="M99.1634 34.6871C97.4517 31.7126 93.6411 30.6972 90.6682 32.4135L69.5068 44.599C67.4798 45.7672 66.3628 47.906 66.3988 50.0807C66.3808 52.2464 67.4979 54.3582 69.5068 55.5084L90.6682 67.7029C93.6411 69.4103 97.4427 68.3948 99.1634 65.4293C100.884 62.4638 99.8571 58.6716 96.8842 56.9552L84.9026 50.0537L96.8842 43.1522C99.8661 41.4448 100.884 37.6526 99.1634 34.6871Z" fill="#29B5E8"/>
</svg>
