<svg width="20" height="20" viewBox="0 0 20 20" fill="none" xmlns="http://www.w3.org/2000/svg">
<path fill-rule="evenodd" clip-rule="evenodd" d="M20 10C20 15.523 15.523 20 10 20C4.477 20 0 15.523 0 10C0 4.477 4.477 0 10 0C15.523 0 20 4.477 20 10ZM15.164 5.753C14.9658 5.57703 14.7059 5.48694 14.4413 5.5025C14.1768 5.51806 13.9292 5.63801 13.753 5.836L8.486 11.761L6.235 9.321C6.05505 9.12607 5.80503 9.0106 5.53995 9C5.27487 8.98941 5.01643 9.08455 4.8215 9.2645C4.62657 9.44445 4.5111 9.69447 4.5005 9.95955C4.48991 10.2246 4.58505 10.4831 4.765 10.678L7.391 13.523C7.5246 13.6678 7.68542 13.7849 7.86428 13.8675C8.04313 13.9502 8.23652 13.9968 8.43339 14.0047C8.63026 14.0126 8.82676 13.9816 9.01166 13.9135C9.19656 13.8455 9.36623 13.7417 9.511 13.608L9.564 13.556C9.58096 13.5383 9.59763 13.5203 9.614 13.502L15.247 7.164C15.423 6.96582 15.5131 6.70589 15.4975 6.44132C15.4819 6.17675 15.362 5.92918 15.164 5.753Z" fill="#19AE31"/>
</svg>
