<svg width="200" height="200" viewBox="0 0 200 200" fill="none" xmlns="http://www.w3.org/2000/svg">
<path d="M135.938 126.213L114.777 114.019C111.804 112.311 108.003 113.327 106.282 116.292C105.615 117.461 105.354 118.746 105.48 119.995V143.826C105.48 147.232 108.255 150 111.678 150C115.092 150 117.867 147.232 117.867 143.826V130.122L129.722 136.952C132.695 138.668 136.506 137.644 138.218 134.678C139.938 131.713 138.92 127.921 135.938 126.213Z" fill="#29B5E8"/>
<path d="M83.3098 100.081C83.3458 97.8792 82.1837 95.8304 80.2739 94.725L59.1125 82.5396C58.1936 82.0094 57.1396 81.7308 56.0855 81.7308C53.9144 81.7308 51.8965 82.89 50.8155 84.7592C49.1398 87.6528 50.1398 91.3642 53.0406 93.0356L65.2384 100.054L53.0406 107.081C51.6352 107.89 50.6263 109.193 50.2119 110.757C49.7885 112.32 50.0047 113.956 50.8155 115.358C51.8965 117.227 53.9144 118.386 56.0765 118.386C57.1396 118.386 58.1936 118.107 59.1125 117.577L80.2739 105.392C82.1657 104.295 83.3278 102.265 83.3098 100.081Z" fill="#29B5E8"/>
<path d="M63.9142 73.9036L85.0756 86.0891C87.544 87.5179 90.5889 87.0506 92.5348 85.1545C93.769 84.0222 94.5347 82.4047 94.5347 80.6074V56.1826C94.5347 52.7678 91.76 50 88.3457 50C84.9224 50 82.1478 52.7678 82.1478 56.1826V70.0844L70.1302 63.165C67.1573 61.4486 63.3556 62.464 61.635 65.4295C59.9143 68.395 60.9413 72.1872 63.9142 73.9036Z" fill="#29B5E8"/>
<path d="M111.498 101.069C111.498 101.537 111.228 102.184 110.894 102.525L102.507 110.891C102.174 111.224 101.516 111.493 101.048 111.493H98.9129C98.4444 111.493 97.7868 111.224 97.4535 110.891L89.0574 102.525C88.7241 102.184 88.4538 101.537 88.4538 101.069V98.9395C88.4538 98.4633 88.7241 97.8162 89.0574 97.4838L97.4535 89.1085C97.7868 88.776 98.4444 88.5064 98.9129 88.5064H101.048C101.516 88.5064 102.174 88.776 102.507 89.1085L110.894 97.4838C111.228 97.8162 111.498 98.4633 111.498 98.9395V101.069ZM104.012 100.045V99.955C104.012 99.6135 103.814 99.1372 103.57 98.8856L101.093 96.4234C100.85 96.1717 100.372 95.974 100.021 95.974H99.9309C99.5885 95.974 99.1111 96.1717 98.8588 96.4234L96.3904 98.8856C96.1472 99.1283 95.949 99.6045 95.949 99.955V100.045C95.949 100.395 96.1472 100.872 96.3904 101.114L98.8588 103.585C99.1111 103.828 99.5885 104.026 99.9309 104.026H100.021C100.372 104.026 100.85 103.828 101.093 103.585L103.57 101.114C103.814 100.872 104.012 100.395 104.012 100.045Z" fill="#29B5E8"/>
<path d="M114.777 86.0891L135.939 73.9036C138.911 72.1962 139.938 68.395 138.218 65.4295C136.497 62.464 132.695 61.4486 129.723 63.165L117.867 69.9946V56.1826C117.867 52.7678 115.092 50 111.678 50C108.255 50 105.48 52.7678 105.48 56.1826V80.1222C105.363 81.3623 105.606 82.6563 106.282 83.8245C108.003 86.79 111.804 87.8055 114.777 86.0891Z" fill="#29B5E8"/>
<path d="M89.3187 113.3C87.9133 113.03 86.4089 113.255 85.0756 114.018L63.9142 126.213C60.9413 127.92 59.9143 131.713 61.635 134.678C63.3556 137.653 67.1573 138.668 70.1302 136.952L82.1478 130.032V143.826C82.1478 147.232 84.9224 150 88.3457 150C91.76 150 94.5347 147.232 94.5347 143.826V119.401C94.5347 116.319 92.2735 113.767 89.3187 113.3Z" fill="#29B5E8"/>
<path d="M149.163 84.6871C147.452 81.7126 143.641 80.6972 140.668 82.4135L119.507 94.599C117.48 95.7672 116.363 97.906 116.399 100.081C116.381 102.246 117.498 104.358 119.507 105.508L140.668 117.703C143.641 119.41 147.443 118.395 149.163 115.429C150.884 112.464 149.857 108.672 146.884 106.955L134.903 100.054L146.884 93.1522C149.866 91.4448 150.884 87.6526 149.163 84.6871Z" fill="#29B5E8"/>
</svg>
