<svg width="173" height="29" viewBox="0 0 173 29" fill="none" xmlns="http://www.w3.org/2000/svg">
<path d="M44.6959 9.77961V20.5259C44.6959 21.4753 43.9263 22.245 42.9769 22.245C42.0275 22.245 41.2578 21.4753 41.2578 20.5259V9.77962C41.2578 8.8302 42.0275 8.06055 42.9769 8.06055C43.9263 8.06055 44.6959 8.8302 44.6959 9.77961Z" fill="white"/>
<path d="M51.5709 13.8324V23.9032C51.5709 24.8526 50.8013 25.6223 49.8519 25.6223C48.9025 25.6223 48.1328 24.8526 48.1328 23.9032V13.8324C48.1328 12.8829 48.9025 12.1133 49.8519 12.1133C50.8013 12.1133 51.5709 12.8829 51.5709 13.8324Z" fill="white"/>
<path d="M58.4469 9.10481V13.0966C58.4469 14.046 57.6773 14.8157 56.7279 14.8157C55.7784 14.8157 55.0088 14.046 55.0088 13.0966V9.10481C55.0088 8.1554 55.7784 7.38574 56.7279 7.38574C57.6773 7.38574 58.4469 8.15539 58.4469 9.10481Z" fill="white"/>
<path d="M10.3131 6.40266V13.0963C10.3131 14.0457 9.54348 14.8153 8.59407 14.8153C7.64465 14.8153 6.875 14.0457 6.875 13.0963V6.40266C6.875 5.45325 7.64465 4.68359 8.59407 4.68359C9.54348 4.68359 10.3131 5.45324 10.3131 6.40266Z" fill="white"/>
<path d="M17.1891 10.4554V20.5262C17.1891 21.4757 16.4195 22.2453 15.47 22.2453C14.5206 22.2453 13.751 21.4757 13.751 20.5262V10.4554C13.751 9.50598 14.5206 8.73633 15.47 8.73633C16.4195 8.73633 17.1891 9.50598 17.1891 10.4554Z" fill="white"/>
<path d="M3.43813 16.5345V20.5263C3.43813 21.4757 2.66848 22.2454 1.71907 22.2454C0.769653 22.2454 0 21.4757 0 20.5263V16.5345C0 15.5851 0.769653 14.8154 1.71907 14.8154C2.66848 14.8154 3.43813 15.5851 3.43813 16.5345Z" fill="white"/>
<path fill-rule="evenodd" clip-rule="evenodd" d="M20.6289 6.34173C20.6289 7.29115 21.3986 8.0608 22.348 8.0608C23.2974 8.0608 24.067 7.29115 24.067 6.34173V2.34993C24.067 1.40051 23.2974 0.630859 22.348 0.630859C21.3986 0.630859 20.6289 1.40051 20.6289 2.34993V6.34173Z" fill="white"/>
<path fill-rule="evenodd" clip-rule="evenodd" d="M20.6289 27.2811C20.6289 28.2305 21.3986 29.0002 22.348 29.0002C23.2974 29.0002 24.0671 28.2305 24.0671 27.2811V13.1575C24.0671 12.2081 23.2974 11.4385 22.348 11.4385C21.3986 11.4385 20.6289 12.2081 20.6289 13.1575V27.2811Z" fill="white"/>
<path fill-rule="evenodd" clip-rule="evenodd" d="M27.5049 27.2807C27.5049 28.2301 28.2745 28.9997 29.224 28.9997C30.1734 28.9997 30.943 28.2301 30.943 27.2807V2.34993C30.943 1.40051 30.1734 0.630859 29.224 0.630859C28.2745 0.630859 27.5049 1.40051 27.5049 2.34993V27.2807Z" fill="white"/>
<path fill-rule="evenodd" clip-rule="evenodd" d="M34.3809 6.34173C34.3809 7.29115 35.1505 8.0608 36.0999 8.0608C37.0493 8.0608 37.819 7.29115 37.819 6.34173V2.34993C37.819 1.40051 37.0493 0.630859 36.0999 0.630859C35.1505 0.630859 34.3809 1.40051 34.3809 2.34993V6.34173Z" fill="white"/>
<path fill-rule="evenodd" clip-rule="evenodd" d="M34.3809 27.2811C34.3809 28.2305 35.1505 29.0002 36.0999 29.0002C37.0494 29.0002 37.819 28.2305 37.819 27.2811V13.1575C37.819 12.2081 37.0494 11.4385 36.0999 11.4385C35.1505 11.4385 34.3809 12.2081 34.3809 13.1575V27.2811Z" fill="white"/>
<path d="M81.3771 8.40016H78.9771V22.0002H81.3771V8.40016Z" fill="white"/>
<path d="M83.2644 10.5402H87.2444V22.0002H89.6444V10.5402H93.6044V8.40016H83.2644V10.5402Z" fill="white"/>
<path d="M97.881 8.40016H95.481V22.0002H97.881V8.40016Z" fill="white"/>
<path d="M114.403 17.9202C113.763 19.2602 112.663 20.0202 111.123 20.0202C108.663 20.0202 107.283 18.1602 107.283 15.2002C107.283 12.2402 108.723 10.3202 111.123 10.3202C112.723 10.3202 113.783 11.1402 114.443 12.5802L116.543 11.2802C115.843 10.1202 114.283 8.16016 111.123 8.16016C107.123 8.16016 104.643 11.0602 104.643 15.2002C104.643 19.3402 106.943 22.2402 111.123 22.2402C114.463 22.2402 116.063 20.1402 116.683 18.8802L114.403 17.9202Z" fill="white"/>
<path d="M126.105 15.2002C126.105 13.0602 124.465 12.3202 122.285 12.3202C119.945 12.3202 118.125 13.2602 118.125 15.6202L120.265 15.6802C120.285 14.6002 120.925 14.0602 122.185 14.0602C123.385 14.0602 123.905 14.5002 123.905 15.2802V15.3602C123.905 15.7802 123.705 15.9002 123.145 16.0002L122.425 16.1202C119.565 16.6002 117.805 17.0602 117.805 19.3402C117.805 21.2802 119.205 22.2402 121.205 22.2402C122.885 22.2402 123.645 21.6202 124.065 21.2002C124.225 21.9002 124.785 22.1802 125.645 22.1802C126.265 22.1802 126.545 22.1202 126.805 22.0602V20.6802H126.665C126.205 20.6802 126.105 20.4602 126.105 19.9002V15.2002ZM121.785 20.5402C120.685 20.5402 120.145 20.0802 120.145 19.2802C120.145 18.5002 120.665 18.1802 121.785 17.9602L123.085 17.7002C123.465 17.6202 123.685 17.5202 123.905 17.4202V18.6002C123.905 19.9402 122.965 20.5402 121.785 20.5402Z" fill="white"/>
<path d="M133.857 22.2402C136.397 22.2402 138.077 20.1602 138.077 17.2802C138.077 14.2202 136.417 12.2602 133.857 12.2602C132.597 12.2602 131.597 12.8402 131.057 13.5402V12.4802H128.777V25.8002H131.057V21.0002C131.677 21.7402 132.577 22.2402 133.857 22.2402ZM130.957 17.2402C130.957 15.4002 131.937 14.2202 133.377 14.2202C134.837 14.2202 135.797 15.3202 135.797 17.2402C135.797 19.1402 134.837 20.2602 133.377 20.2602C131.937 20.2602 130.957 19.0802 130.957 17.2402Z" fill="white"/>
<path d="M142.463 12.4802H140.183V22.0002H142.463V12.4802ZM142.463 8.40016H140.183V10.7202H142.463V8.40016Z" fill="white"/>
<path d="M150.663 20.2802C150.423 20.3402 150.063 20.3602 149.663 20.3602C149.263 20.3602 148.883 20.3202 148.703 20.1002C148.523 19.9202 148.443 19.6602 148.443 19.1202V14.2602H150.663V12.4802H148.443V8.66016L146.163 9.16016V12.4802H144.123V14.2602H146.163V19.5002C146.163 20.4402 146.183 20.9602 146.563 21.4202C147.103 22.0602 148.023 22.2402 148.963 22.2402C149.623 22.2402 150.203 22.1802 150.663 22.0802V20.2802Z" fill="white"/>
<path d="M160.265 15.2002C160.265 13.0602 158.625 12.3202 156.445 12.3202C154.105 12.3202 152.285 13.2602 152.285 15.6202L154.425 15.6802C154.445 14.6002 155.085 14.0602 156.345 14.0602C157.545 14.0602 158.065 14.5002 158.065 15.2802V15.3602C158.065 15.7802 157.865 15.9002 157.305 16.0002L156.585 16.1202C153.725 16.6002 151.965 17.0602 151.965 19.3402C151.965 21.2802 153.365 22.2402 155.365 22.2402C157.045 22.2402 157.805 21.6202 158.225 21.2002C158.385 21.9002 158.945 22.1802 159.805 22.1802C160.425 22.1802 160.705 22.1202 160.965 22.0602V20.6802H160.825C160.365 20.6802 160.265 20.4602 160.265 19.9002V15.2002ZM155.945 20.5402C154.845 20.5402 154.305 20.0802 154.305 19.2802C154.305 18.5002 154.825 18.1802 155.945 17.9602L157.245 17.7002C157.625 17.6202 157.845 17.5202 158.065 17.4202V18.6002C158.065 19.9402 157.125 20.5402 155.945 20.5402Z" fill="white"/>
<path d="M165.217 8.40016H162.937V22.0002H165.217V8.40016Z" fill="white"/>
</svg>
