<svg width="200" height="40" viewBox="0 0 200 40" fill="none" xmlns="http://www.w3.org/2000/svg">
<path d="M54.2956 14.0218V26.9004C54.2956 28.0537 53.3606 28.9887 52.2073 28.9887C51.0539 28.9887 50.119 28.0537 50.119 26.9004V14.0218C50.119 12.8685 51.0539 11.9336 52.2073 11.9336C53.3606 11.9336 54.2956 12.8685 54.2956 14.0218Z" fill="#EBEBEB"/>
<path d="M62.6473 18.8949V30.9613C62.6473 32.1147 61.7123 33.0496 60.559 33.0496C59.4056 33.0496 58.4707 32.1147 58.4707 30.9613V18.8949C58.4707 17.7416 59.4056 16.8066 60.559 16.8066C61.7123 16.8066 62.6473 17.7416 62.6473 18.8949Z" fill="#EBEBEB"/>
<path d="M71 13.2097V17.9667C71 19.12 70.065 20.055 68.9117 20.055C67.7583 20.055 66.8234 19.12 66.8234 17.9667V13.2097C66.8234 12.0563 67.7583 11.1214 68.9117 11.1214C70.065 11.1214 71 12.0563 71 13.2097Z" fill="#EBEBEB"/>
<path d="M12.5284 9.96139V17.967C12.5284 19.1204 11.5935 20.0553 10.4401 20.0553C9.28681 20.0553 8.35185 19.1204 8.35185 17.967V9.96138C8.35185 8.80805 9.28681 7.8731 10.4401 7.8731C11.5935 7.8731 12.5284 8.80806 12.5284 9.96139Z" fill="#EBEBEB"/>
<path d="M20.8811 14.834V26.9004C20.8811 28.0537 19.9462 28.9887 18.7929 28.9887C17.6395 28.9887 16.7046 28.0537 16.7046 26.9004V14.834C16.7046 13.6807 17.6395 12.7457 18.7929 12.7457C19.9462 12.7457 20.8811 13.6807 20.8811 14.834Z" fill="#EBEBEB"/>
<path d="M4.17658 22.1432V26.9003C4.17658 28.0536 3.24162 28.9886 2.08829 28.9886C0.93496 28.9886 0 28.0536 0 26.9003V22.1432C0 20.9899 0.93496 20.0549 2.08829 20.0549C3.24162 20.0549 4.17658 20.9899 4.17658 22.1432Z" fill="#EBEBEB"/>
<path fill-rule="evenodd" clip-rule="evenodd" d="M25.0597 9.84534C25.0597 10.9987 25.9947 11.9336 27.148 11.9336V11.9336C28.3013 11.9336 29.2363 10.9987 29.2363 9.84534V5.08829C29.2363 3.93496 28.3013 3 27.148 3V3C25.9947 3 25.0597 3.93496 25.0597 5.08829V9.84534Z" fill="#EBEBEB"/>
<path fill-rule="evenodd" clip-rule="evenodd" d="M25.0597 35.022C25.0597 36.1754 25.9947 37.1103 27.148 37.1103V37.1103C28.3013 37.1103 29.2363 36.1754 29.2363 35.022V18.0828C29.2363 16.9294 28.3013 15.9945 27.148 15.9945V15.9945C25.9947 15.9945 25.0597 16.9294 25.0597 18.0828V35.022Z" fill="#EBEBEB"/>
<path fill-rule="evenodd" clip-rule="evenodd" d="M33.4125 35.022C33.4125 36.1753 34.3474 37.1102 35.5008 37.1102V37.1102C36.6541 37.1102 37.589 36.1753 37.589 35.022V5.08829C37.589 3.93496 36.6541 3 35.5008 3V3C34.3474 3 33.4125 3.93496 33.4125 5.08829V35.022Z" fill="#EBEBEB"/>
<path fill-rule="evenodd" clip-rule="evenodd" d="M41.7652 9.84534C41.7652 10.9987 42.7001 11.9336 43.8535 11.9336V11.9336C45.0068 11.9336 45.9418 10.9987 45.9418 9.84534V5.08829C45.9418 3.93496 45.0068 3 43.8535 3V3C42.7001 3 41.7652 3.93496 41.7652 5.08829V9.84534Z" fill="#EBEBEB"/>
<path fill-rule="evenodd" clip-rule="evenodd" d="M41.7652 35.022C41.7652 36.1754 42.7002 37.1103 43.8535 37.1103V37.1103C45.0068 37.1103 45.9418 36.1754 45.9418 35.022V18.0828C45.9418 16.9294 45.0068 15.9945 43.8535 15.9945V15.9945C42.7002 15.9945 41.7652 16.9294 41.7652 18.0828V35.022Z" fill="#EBEBEB"/>
<path d="M92.92 27.16V10.36H95.44V27.16H92.92Z" fill="#EBEBEB"/>
<path d="M103.112 27.16V12.64H97.8315V10.36H110.912V12.64H105.632V27.16H103.112Z" fill="#EBEBEB"/>
<path d="M113.311 27.16V10.36H115.831V27.16H113.311Z" fill="#EBEBEB"/>
<path d="M131.776 27.4C129.44 27.4 127.576 26.648 126.184 25.144C124.792 23.64 124.096 21.512 124.096 18.76C124.096 16.008 124.792 13.88 126.184 12.376C127.576 10.872 129.44 10.12 131.776 10.12C135.28 10.12 137.6 11.76 138.736 15.04H136.096C135.28 13.28 133.84 12.4 131.776 12.4C130.224 12.4 128.976 12.952 128.032 14.056C127.088 15.144 126.616 16.712 126.616 18.76C126.616 20.808 127.08 22.384 128.008 23.488C128.952 24.576 130.208 25.12 131.776 25.12C133.84 25.12 135.28 24.24 136.096 22.48H138.736C137.6 25.76 135.28 27.4 131.776 27.4Z" fill="#EBEBEB"/>
<path d="M144.637 25.36C145.693 25.36 146.533 25.072 147.157 24.496C147.797 23.904 148.117 23.152 148.117 22.24V21.52H144.757C143.925 21.52 143.293 21.696 142.861 22.048C142.445 22.384 142.237 22.848 142.237 23.44C142.237 24.032 142.445 24.504 142.861 24.856C143.293 25.192 143.885 25.36 144.637 25.36ZM144.277 27.4C142.997 27.4 141.957 27.016 141.157 26.248C140.357 25.48 139.957 24.544 139.957 23.44C139.957 22.304 140.381 21.36 141.229 20.608C142.077 19.856 143.253 19.48 144.757 19.48H148.117V18.88C148.117 18.096 147.869 17.48 147.373 17.032C146.877 16.584 146.205 16.36 145.357 16.36C144.669 16.36 144.109 16.512 143.677 16.816C143.245 17.104 142.965 17.472 142.837 17.92H140.437C140.677 16.864 141.245 15.984 142.141 15.28C143.053 14.56 144.125 14.2 145.357 14.2C146.941 14.2 148.173 14.632 149.053 15.496C149.949 16.344 150.397 17.472 150.397 18.88V27.16H148.477L148.237 25.6H148.117C147.845 26.064 147.357 26.48 146.653 26.848C145.965 27.216 145.173 27.4 144.277 27.4Z" fill="#EBEBEB"/>
<path d="M153.404 31.96V14.44H155.204L155.564 16.12H155.684C156.676 14.84 157.996 14.2 159.644 14.2C161.26 14.2 162.564 14.776 163.556 15.928C164.548 17.08 165.044 18.704 165.044 20.8C165.044 22.896 164.548 24.52 163.556 25.672C162.564 26.824 161.26 27.4 159.644 27.4C157.98 27.4 156.7 26.8 155.804 25.6H155.684V31.96H153.404ZM159.284 25.24C160.34 25.24 161.18 24.864 161.804 24.112C162.444 23.36 162.764 22.256 162.764 20.8C162.764 19.344 162.444 18.24 161.804 17.488C161.18 16.736 160.34 16.36 159.284 16.36C158.212 16.36 157.34 16.744 156.668 17.512C156.012 18.264 155.684 19.36 155.684 20.8C155.684 22.24 156.012 23.344 156.668 24.112C157.34 24.864 158.212 25.24 159.284 25.24Z" fill="#EBEBEB"/>
<path d="M167.56 27.16V14.44H169.84V27.16H167.56ZM168.712 13C168.264 13 167.896 12.864 167.608 12.592C167.336 12.304 167.2 11.944 167.2 11.512C167.2 11.064 167.336 10.704 167.608 10.432C167.896 10.144 168.264 10 168.712 10C169.144 10 169.496 10.144 169.768 10.432C170.056 10.704 170.2 11.064 170.2 11.512C170.2 11.944 170.056 12.304 169.768 12.592C169.496 12.864 169.144 13 168.712 13Z" fill="#EBEBEB"/>
<path d="M177.271 27.16C176.263 27.16 175.447 26.848 174.823 26.224C174.215 25.6 173.911 24.792 173.911 23.8V16.6H171.871V14.44H173.911L174.271 11.08H176.191V14.44H179.311V16.6H176.191V23.56C176.191 23.992 176.303 24.344 176.527 24.616C176.767 24.872 177.095 25 177.511 25H179.311V27.16H177.271Z" fill="#EBEBEB"/>
<path d="M185.793 25.36C186.849 25.36 187.689 25.072 188.313 24.496C188.953 23.904 189.273 23.152 189.273 22.24V21.52H185.913C185.081 21.52 184.449 21.696 184.017 22.048C183.601 22.384 183.393 22.848 183.393 23.44C183.393 24.032 183.601 24.504 184.017 24.856C184.449 25.192 185.041 25.36 185.793 25.36ZM185.433 27.4C184.153 27.4 183.113 27.016 182.313 26.248C181.513 25.48 181.113 24.544 181.113 23.44C181.113 22.304 181.537 21.36 182.385 20.608C183.233 19.856 184.409 19.48 185.913 19.48H189.273V18.88C189.273 18.096 189.025 17.48 188.529 17.032C188.033 16.584 187.361 16.36 186.513 16.36C185.825 16.36 185.265 16.512 184.833 16.816C184.401 17.104 184.121 17.472 183.993 17.92H181.593C181.833 16.864 182.401 15.984 183.297 15.28C184.209 14.56 185.281 14.2 186.513 14.2C188.097 14.2 189.329 14.632 190.209 15.496C191.105 16.344 191.553 17.472 191.553 18.88V27.16H189.633L189.393 25.6H189.273C189.001 26.064 188.513 26.48 187.809 26.848C187.121 27.216 186.329 27.4 185.433 27.4Z" fill="#EBEBEB"/>
<path d="M194.68 27.16V10.36H196.96V27.16H194.68Z" fill="#EBEBEB"/>
</svg>
