<svg width="200" height="200" viewBox="0 0 200 200" style="background: #0056D2;" fill="none" xmlns="http://www.w3.org/2000/svg">
<path d="M49.0157 99.765C49.0157 94.3607 53.4741 90 59.0562 90C64.6758 90 69.134 94.3607 69.134 99.765C69.134 105.132 64.6758 109.567 59.0562 109.567C53.4741 109.567 49.0157 105.095 49.0157 99.765ZM64.3387 99.765C64.3387 97.0818 61.9783 94.6959 59.0562 94.6959C56.1714 94.6959 53.8488 97.0818 53.8488 99.765C53.8488 102.486 56.2089 104.871 59.0562 104.871C61.9783 104.871 64.3387 102.486 64.3387 99.765Z" fill="white"/>
<path d="M149.882 99.9137C149.882 93.9878 154.733 90 159.132 90C162.141 90 163.871 90.8943 165.036 92.6466L165.488 90.3357H170V109.195H165.488L164.923 107.256C163.607 108.673 161.953 109.567 159.17 109.567C154.771 109.567 149.882 105.765 149.882 99.9137ZM165.225 99.8764C165.225 97.0073 162.855 94.6959 159.923 94.6959C157.027 94.6959 154.696 97.0445 154.696 99.9518C154.696 102.56 157.065 104.908 159.923 104.908C162.892 104.871 165.225 102.523 165.225 99.8764Z" fill="white"/>
<path d="M144.473 92.6384V90.4766H139.685V109.016H144.473V99.0129C144.473 96.0088 145.935 94.4332 148.53 94.4332C148.712 94.4332 148.859 94.4333 149.005 94.4699L149.882 90C147.397 90.0367 145.606 90.8792 144.473 92.6384Z" fill="white"/>
<path d="M95.5643 92.6384V90.4766H90.6298L90.6676 109.016H95.6026L95.5643 99.0129C95.5643 96.0088 97.0712 94.4332 99.7085 94.4332C99.8967 94.4332 100.047 94.4333 100.199 94.4699L101.102 90C98.5404 90.0367 96.6949 90.8792 95.5643 92.6384Z" fill="white"/>
<path d="M71.0631 101.82V90.2751H75.8816V101.224C75.8816 103.645 77.206 105.06 79.5233 105.06C82.0982 105.06 83.6065 103.459 83.6065 100.405V90.2751H88.4251V109.119H83.6065V106.923C82.4661 108.71 80.627 109.566 78.0888 109.566C73.7483 109.604 71.0631 106.438 71.0631 101.82Z" fill="white"/>
<path d="M118.465 99.7469C118.465 94.4642 122.278 89.9632 128.26 90.0004C133.83 90.0004 137.756 94.4642 137.756 99.6719C137.756 100.193 137.719 100.751 137.644 101.235L123.25 101.198C123.811 103.467 125.68 105.066 128.484 105.103C130.204 105.103 132.036 104.471 133.158 103.057L136.485 105.736C134.765 108.153 131.737 109.567 128.522 109.567C122.839 109.493 118.465 105.252 118.465 99.7469ZM132.859 97.8124C132.596 95.9148 130.578 94.4269 128.26 94.4269C125.98 94.4269 124.147 95.7662 123.437 97.7752L132.859 97.8124Z" fill="white"/>
<path d="M101.102 105.12L105.449 102.86C106.16 104.416 107.621 105.305 109.644 105.305C111.518 105.305 112.23 104.712 112.23 103.897C112.23 100.895 101.889 102.711 101.889 95.8181C101.889 92.0014 105.261 90 109.419 90C112.566 90 115.376 91.3712 116.912 93.9656L112.604 96.2261C111.967 94.9661 110.768 94.2619 109.232 94.2619C107.734 94.2619 107.022 94.781 107.022 95.633C107.022 98.5607 117.362 96.7074 117.362 103.712C117.362 107.343 114.365 109.567 109.532 109.567C105.411 109.53 102.526 108.196 101.102 105.12Z" fill="white"/>
<path d="M30 99.6642C30 94.2991 34.4211 90 39.9568 90C43.5233 90 46.6071 91.7643 48.3904 94.4092L44.2293 96.7981C43.2632 95.4754 41.7401 94.5937 39.9568 94.5937C37.096 94.5937 34.7926 96.9451 34.7926 99.6275C34.7926 102.309 37.1331 104.661 39.9568 104.661C41.8143 104.661 43.449 103.706 44.3408 102.273L48.4646 104.697C46.7185 107.453 43.5605 109.291 39.9568 109.291C34.4211 109.328 30 104.919 30 99.6642Z" fill="white"/>
</svg>
