<svg width="200" height="200" viewBox="0 0 200 200" fill="none" xmlns="http://www.w3.org/2000/svg">
<path d="M145.756 119.071C145.249 117.87 144.743 116.569 144.236 115.467C143.425 113.666 142.614 111.964 141.904 110.362L141.803 110.262C134.809 95.2472 127.308 80.032 119.402 65.017L119.098 64.4164C118.287 62.9149 117.476 61.3133 116.665 59.7117C115.651 57.9099 114.638 56.008 113.016 54.2062C109.772 50.2022 105.109 48 100.143 48C95.0744 48 90.513 50.2022 87.168 54.006C85.6476 55.8078 84.5326 57.7097 83.5189 59.5115C82.708 61.1131 81.8971 62.7147 81.0862 64.2162L80.7821 64.8168C72.9771 79.8318 65.3748 95.047 58.3807 110.062L58.2794 110.262C57.5698 111.864 56.7589 113.566 55.948 115.367C55.4412 116.468 54.9344 117.67 54.4275 118.971C53.1098 122.675 52.7044 126.178 53.2112 129.782C54.3262 137.289 59.3944 143.596 66.3885 146.398C69.0239 147.499 71.7607 148 74.5989 148C75.4098 148 76.4235 147.9 77.2344 147.8C80.5794 147.399 84.0257 146.298 87.3707 144.396C91.5267 142.094 95.4798 138.791 99.9398 133.986C104.4 138.791 108.454 142.094 112.509 144.396C115.854 146.298 119.3 147.399 122.645 147.8C123.456 147.9 124.47 148 125.281 148C128.119 148 130.957 147.499 133.491 146.398C140.587 143.596 145.553 137.189 146.668 129.782C147.479 126.278 147.074 122.775 145.756 119.071ZM100.041 124.276C94.5676 117.469 91.0198 111.063 89.8035 105.658C89.2966 103.355 89.1953 101.353 89.4994 99.5515C89.7021 97.9499 90.3103 96.5485 91.1212 95.3473C93.0471 92.6446 96.2907 90.9429 100.041 90.9429C103.792 90.9429 107.137 92.5445 108.961 95.3473C109.772 96.5485 110.38 97.9499 110.583 99.5515C110.887 101.353 110.786 103.455 110.279 105.658C109.063 110.963 105.515 117.369 100.041 124.276ZM140.485 128.981C139.776 134.186 136.228 138.691 131.261 140.693C128.828 141.694 126.193 141.994 123.558 141.694C121.023 141.393 118.489 140.593 115.854 139.091C112.205 137.089 108.556 133.986 104.298 129.381C110.988 121.273 115.043 113.866 116.563 107.259C117.273 104.156 117.374 101.353 117.07 98.7507C116.665 96.2482 115.753 93.9459 114.333 91.9439C111.191 87.4394 105.92 84.8368 100.041 84.8368C94.1621 84.8368 88.8912 87.5395 85.7489 91.9439C84.3298 93.9459 83.4176 96.2482 83.0121 98.7507C82.6066 101.353 82.708 104.256 83.5189 107.259C85.0394 113.866 89.1953 121.373 95.7839 129.481C91.628 134.086 87.8776 137.189 84.2285 139.191C81.593 140.693 79.0589 141.493 76.5248 141.794C73.788 142.094 71.1525 141.694 68.8212 140.793C63.8544 138.791 60.3066 134.286 59.5971 129.081C59.293 126.579 59.4957 124.076 60.5094 121.273C60.8135 120.272 61.3203 119.271 61.8271 118.07C62.5366 116.468 63.3475 114.767 64.1585 113.065L64.2598 112.865C71.2539 97.95 78.7548 82.7347 86.5598 67.9199L86.8639 67.3193C87.6748 65.8178 88.4857 64.2162 89.2966 62.7147C90.1076 61.1131 91.0198 59.6116 92.1348 58.3103C94.2635 55.9079 97.1017 54.6066 100.244 54.6066C103.386 54.6066 106.224 55.9079 108.353 58.3103C109.468 59.6116 110.38 61.1131 111.191 62.7147C112.002 64.2162 112.813 65.8178 113.624 67.3193L113.928 67.9199C121.632 82.8348 129.133 98.0501 136.127 112.965V113.065C136.938 114.667 137.647 116.468 138.458 118.07C138.965 119.271 139.472 120.272 139.776 121.273C140.587 123.876 140.891 126.378 140.485 128.981Z" fill="#FF5A5F"/>
</svg>
