<svg width="60" height="60" viewBox="0 0 60 60" fill="none" xmlns="http://www.w3.org/2000/svg">
<path d="M29.8726 36.3496C21.2476 36.3496 13.9702 37.759 13.9702 43.1983C13.9702 48.6399 21.2946 49.9998 29.8726 49.9998C38.4975 49.9998 45.7749 48.5904 45.7749 43.1511C45.7749 37.7094 38.4505 36.3496 29.8726 36.3496" fill="url(#paint0_linear)"/>
<path d="M29.8723 31.1676C35.7126 31.1676 40.3956 26.4577 40.3956 20.5838C40.3956 14.7077 35.7126 10 29.8723 10C24.0321 10 19.3491 14.7077 19.3491 20.5838C19.3491 26.4577 24.0321 31.1676 29.8723 31.1676" fill="url(#paint1_linear)"/>
<path d="M52.7199 23.0483C54.2309 17.1046 49.8009 11.7666 44.1599 11.7666C43.5465 11.7666 42.96 11.8341 42.387 11.949C42.3109 11.967 42.2258 12.0052 42.181 12.0728C42.1295 12.1583 42.1676 12.2732 42.2236 12.3475C43.9181 14.7384 44.8919 17.6495 44.8919 20.7744C44.8919 23.7688 43.9987 26.5605 42.4317 28.8772C42.2706 29.1158 42.4138 29.4378 42.6981 29.4873C43.0921 29.5571 43.495 29.5931 43.9069 29.6044C48.0146 29.7124 51.7014 27.0535 52.7199 23.0483" fill="url(#paint2_linear)"/>
<path d="M57.023 37.0421C56.2709 35.4302 54.4555 34.3247 51.6954 33.7821C50.3926 33.4624 46.8669 33.0122 43.5875 33.0729C43.5383 33.0797 43.5114 33.1135 43.5069 33.136C43.5002 33.1675 43.5136 33.2215 43.5786 33.2553C45.094 34.0095 50.9522 37.2898 50.2157 44.2083C50.1844 44.5078 50.4239 44.7667 50.7216 44.7216C52.1632 44.5145 55.8724 43.713 57.023 41.2162C57.6588 39.8969 57.6588 38.3637 57.023 37.0421" fill="url(#paint3_linear)"/>
<path d="M17.6122 11.9495C17.0414 11.8324 16.4527 11.7671 15.8393 11.7671C10.1983 11.7671 5.76826 17.1051 7.28149 23.0488C8.29777 27.054 11.9846 29.7129 16.0923 29.6049C16.5041 29.5936 16.9093 29.5553 17.301 29.4878C17.5853 29.4382 17.7286 29.1163 17.5674 28.8777C16.0005 26.5587 15.1073 23.7692 15.1073 20.7749C15.1073 17.6477 16.0833 14.7367 17.7779 12.3479C17.8316 12.2737 17.8719 12.1588 17.8181 12.0733C17.7734 12.0035 17.6905 11.9675 17.6122 11.9495" fill="url(#paint4_linear)"/>
<path d="M8.30389 33.7817C5.54381 34.3243 3.73062 35.4298 2.97848 37.0418C2.34051 38.3633 2.34051 39.8965 2.97848 41.2181C4.12907 43.7126 7.83828 44.5164 9.27988 44.7213C9.5776 44.7663 9.81488 44.5096 9.78354 44.2079C9.04707 37.2917 14.9052 34.0114 16.423 33.2572C16.4856 33.2212 16.4991 33.1694 16.4923 33.1356C16.4879 33.1131 16.4632 33.0793 16.414 33.0748C13.1323 33.0118 9.60894 33.4621 8.30389 33.7817" fill="url(#paint5_linear)"/>
<defs>
<linearGradient id="paint0_linear" x1="22.9058" y1="28.6578" x2="34.3302" y2="55.4617" gradientUnits="userSpaceOnUse">
<stop stop-color="#13A8FC"/>
<stop offset="1" stop-color="#00FFC2"/>
</linearGradient>
<linearGradient id="paint1_linear" x1="25.2622" y1="-1.92776" x2="49.8202" y2="22.6597" gradientUnits="userSpaceOnUse">
<stop stop-color="#13A8FC"/>
<stop offset="1" stop-color="#00FFC2"/>
</linearGradient>
<linearGradient id="paint2_linear" x1="45.2084" y1="1.71337" x2="63.6545" y2="13.0219" gradientUnits="userSpaceOnUse">
<stop stop-color="#13A8FC"/>
<stop offset="1" stop-color="#00FFC2"/>
</linearGradient>
<linearGradient id="paint3_linear" x1="47.4371" y1="26.4974" x2="60.7248" y2="42.5572" gradientUnits="userSpaceOnUse">
<stop stop-color="#13A8FC"/>
<stop offset="1" stop-color="#00FFC2"/>
</linearGradient>
<linearGradient id="paint4_linear" x1="10.0335" y1="1.71386" x2="28.4793" y2="13.0219" gradientUnits="userSpaceOnUse">
<stop stop-color="#13A8FC"/>
<stop offset="1" stop-color="#00FFC2"/>
</linearGradient>
<linearGradient id="paint5_linear" x1="6.43162" y1="26.4999" x2="19.7169" y2="42.5588" gradientUnits="userSpaceOnUse">
<stop stop-color="#13A8FC"/>
<stop offset="1" stop-color="#00FFC2"/>
</linearGradient>
</defs>
</svg>
