<svg width="50" height="50" viewBox="0 0 50 50" fill="none" xmlns="http://www.w3.org/2000/svg">
<mask id="mask0" mask-type="alpha" maskUnits="userSpaceOnUse" x="0" y="0" width="50" height="50">
<rect width="50" height="50" rx="25" fill="white"/>
</mask>
<g mask="url(#mask0)">
<path d="M28.3381 3.0332L28.3216 12.3144L28.305 21.5957L27.5426 19.4411V19.4356L26.5537 40.0974C27.526 42.8376 28.0453 44.3016 28.0509 44.3071C28.0564 44.3126 28.6088 44.3458 29.2773 44.3789C31.2993 44.4784 33.8074 44.6938 35.7134 44.9314C36.1554 44.9866 36.531 45.0142 36.5587 44.9921C36.5863 44.97 36.5918 35.5231 36.5863 23.9933L36.5697 3.0332H28.3381V3.0332Z" fill="#B1060F"/>
<path d="M13.4492 3.00552V23.9878C13.4492 35.5285 13.4603 44.981 13.4768 44.9976C13.4934 45.0142 14.2061 44.9424 15.0679 44.8484C15.9297 44.7545 17.1175 44.633 17.7086 44.5833C18.6147 44.5059 21.3327 44.3347 21.6421 44.3291C21.736 44.3291 21.7416 43.8596 21.7526 35.4401L21.7692 26.5511L22.4266 28.4074C22.526 28.6947 22.5592 28.7831 22.6586 29.0648L23.6475 8.40853C23.4376 7.81741 23.5481 8.12678 23.3105 7.45279C22.5039 5.17115 21.8189 3.24308 21.7913 3.15469L21.736 3H13.4492V3.00552Z" fill="#B1060F"/>
<path d="M28.3381 3.0332L28.3216 12.3144L28.305 21.5957L27.5426 19.4411V19.4356L26.5537 40.0974C27.526 42.8376 28.0453 44.3016 28.0509 44.3071C28.0564 44.3126 28.6088 44.3458 29.2773 44.3789C31.2993 44.4784 33.8074 44.6938 35.7134 44.9314C36.1554 44.9866 36.531 45.0142 36.5587 44.9921C36.5863 44.97 36.5918 35.5231 36.5863 23.9933L36.5697 3.0332H28.3381V3.0332Z" fill="#B1060F"/>
<path d="M13.4492 3.00552V23.9878C13.4492 35.5285 13.4603 44.981 13.4768 44.9976C13.4934 45.0142 14.2061 44.9424 15.0679 44.8484C15.9297 44.7545 17.1175 44.633 17.7086 44.5833C18.6147 44.5059 21.3327 44.3347 21.6421 44.3291C21.736 44.3291 21.7416 43.8596 21.7526 35.4401L21.7692 26.5511L22.4266 28.4074C22.526 28.6947 22.5592 28.7831 22.6586 29.0648L23.6475 8.40853C23.4376 7.81741 23.5481 8.12678 23.3105 7.45279C22.5039 5.17115 21.8189 3.24308 21.7913 3.15469L21.736 3H13.4492V3.00552Z" fill="#B1060F"/>
<path d="M13.4492 3.00552V14.7839L21.7471 36.7937C21.7471 36.2909 21.7471 36.0147 21.7526 35.4401L21.7692 26.5511L22.4266 28.4074C26.0728 38.7493 28.034 44.296 28.0451 44.307C28.0506 44.3126 28.603 44.3457 29.2715 44.3789C31.2935 44.4783 33.8016 44.6938 35.7076 44.9313C36.1496 44.9866 36.5252 45.0142 36.5529 44.9921C36.5694 44.9755 36.5805 40.3459 36.5805 33.8104L28.3268 10.0659L28.3213 12.3144L28.3047 21.5956L27.5423 19.4411C26.7965 17.3362 26.2993 15.9274 23.2995 7.45279C22.4929 5.17115 21.8079 3.24308 21.7802 3.15469L21.725 3H13.4492V3.00552Z" fill="url(#paint0_radial)"/>
<path d="M13.4492 3.00552L21.7637 26.5677V26.5567L22.4211 28.4129C26.0728 38.7493 28.034 44.296 28.0451 44.307C28.0506 44.3126 28.6031 44.3457 29.2715 44.3789C31.2935 44.4783 33.8017 44.6938 35.7076 44.9313C36.1441 44.9866 36.5253 45.0142 36.5474 44.9921L28.3047 21.5901V21.5956L27.5423 19.4411C26.7965 17.3362 26.2993 15.9274 23.2995 7.45279C22.4929 5.17115 21.8079 3.24308 21.7802 3.15469L21.725 3H17.5871L13.4492 3.00552Z" fill="#E50914"/>
</g>
<defs>
<radialGradient id="paint0_radial" cx="0" cy="0" r="1" gradientUnits="userSpaceOnUse" gradientTransform="translate(24.6276 23.7563) rotate(-19.1007) scale(1.52449 55.8442)">
<stop/>
<stop offset="1" stop-opacity="0"/>
</radialGradient>
</defs>
</svg>
