<svg width="50" height="50" viewBox="0 0 50 50" fill="none" xmlns="http://www.w3.org/2000/svg">
<path d="M25.9201 44.8339L31.7727 11.7778C37.3514 11.7778 39.111 12.3921 39.365 14.8997C39.365 14.8997 43.1073 13.4983 44.9948 10.6523C37.6293 7.22474 30.2287 7.07016 30.2287 7.07016L25.9103 12.3523L25.9201 12.3517L21.6017 7.06934C21.6017 7.06934 14.2009 7.22408 6.83643 10.6517C8.72225 13.4977 12.466 14.899 12.466 14.899C12.7216 12.3913 14.4791 11.7769 20.0202 11.773L25.9201 44.8339Z" fill="#E82127"/>
<path d="M25.9175 5.54483C31.8715 5.4991 38.6864 6.46982 45.6629 9.52345C46.5953 7.838 46.835 7.0931 46.835 7.0931C39.2087 4.063 32.0668 3.02601 25.9167 3C19.7669 3.02601 12.6253 4.06316 5 7.0931C5 7.0931 5.34018 8.01064 6.17132 9.52345C13.1465 6.46982 19.9626 5.4991 25.9167 5.54483H25.9175Z" fill="#E82127"/>
</svg>
