<svg width="830" height="393" viewBox="0 0 830 393" fill="none" xmlns="http://www.w3.org/2000/svg">
<rect width="830" height="393" rx="20" fill="#282941"/>
<path opacity="0.3" d="M64.3991 366H73.973V364.118H67.4247V364.011L70.3153 360.986C72.9787 358.294 73.7386 357.009 73.7386 355.382C73.7386 353.045 71.8352 351.256 69.0938 351.256C66.3736 351.256 64.3849 353.017 64.3849 355.673H66.4801C66.473 354.111 67.4815 353.088 69.0511 353.088C70.5284 353.088 71.6506 353.997 71.6506 355.446C71.6506 356.732 70.8835 357.655 69.321 359.31L64.3991 364.409V366ZM81.7287 366.241C85.0881 366.241 87.0554 363.5 87.0554 358.734C87.0554 354.004 85.0597 351.256 81.7287 351.256C78.3906 351.256 76.402 353.997 76.3949 358.734C76.3949 363.493 78.3622 366.234 81.7287 366.241ZM81.7287 364.345C79.7614 364.345 78.5753 362.371 78.5753 358.734C78.5824 355.112 79.7685 353.116 81.7287 353.116C83.6818 353.116 84.875 355.112 84.875 358.734C84.875 362.371 83.6889 364.345 81.7287 364.345ZM95.0934 351.455H92.9556L89.3263 353.827V355.929L92.8065 353.656H92.8917V366H95.0934V351.455ZM104.106 366.199C107.146 366.227 109.163 364.04 109.156 361.249C109.163 358.464 107.139 356.469 104.618 356.469C103.083 356.469 101.755 357.207 101.01 358.436H100.903C100.91 355.134 102.16 353.173 104.291 353.173C105.69 353.173 106.571 354.026 106.869 355.233H109.035C108.701 352.932 106.89 351.256 104.291 351.256C100.91 351.256 98.8008 354.161 98.8008 359.217C98.7937 364.572 101.521 366.178 104.106 366.199ZM104.099 364.352C102.409 364.352 101.173 362.932 101.173 361.298C101.18 359.672 102.473 358.251 104.149 358.251C105.811 358.251 107.032 359.594 107.025 361.277C107.032 362.996 105.761 364.352 104.099 364.352Z" fill="white"/>
<path d="M202.399 366H211.973V364.118H205.425V364.011L208.315 360.986C210.979 358.294 211.739 357.009 211.739 355.382C211.739 353.045 209.835 351.256 207.094 351.256C204.374 351.256 202.385 353.017 202.385 355.673H204.48C204.473 354.111 205.482 353.088 207.051 353.088C208.528 353.088 209.651 353.997 209.651 355.446C209.651 356.732 208.884 357.655 207.321 359.31L202.399 364.409V366ZM219.729 366.241C223.088 366.241 225.055 363.5 225.055 358.734C225.055 354.004 223.06 351.256 219.729 351.256C216.391 351.256 214.402 353.997 214.395 358.734C214.395 363.493 216.362 366.234 219.729 366.241ZM219.729 364.345C217.761 364.345 216.575 362.371 216.575 358.734C216.582 355.112 217.768 353.116 219.729 353.116C221.682 353.116 222.875 355.112 222.875 358.734C222.875 362.371 221.689 364.345 219.729 364.345ZM233.093 351.455H230.956L227.326 353.827V355.929L230.806 353.656H230.892V366H233.093V351.455ZM237.518 366H239.812L246.14 353.401V351.455H236.524V353.337H243.868V353.443L237.518 366Z" fill="white"/>
<path opacity="0.3" d="M339.399 366H348.973V364.118H342.425V364.011L345.315 360.986C347.979 358.294 348.739 357.009 348.739 355.382C348.739 353.045 346.835 351.256 344.094 351.256C341.374 351.256 339.385 353.017 339.385 355.673H341.48C341.473 354.111 342.482 353.088 344.051 353.088C345.528 353.088 346.651 353.997 346.651 355.446C346.651 356.732 345.884 357.655 344.321 359.31L339.399 364.409V366ZM356.729 366.241C360.088 366.241 362.055 363.5 362.055 358.734C362.055 354.004 360.06 351.256 356.729 351.256C353.391 351.256 351.402 353.997 351.395 358.734C351.395 363.493 353.362 366.234 356.729 366.241ZM356.729 364.345C354.761 364.345 353.575 362.371 353.575 358.734C353.582 355.112 354.768 353.116 356.729 353.116C358.682 353.116 359.875 355.112 359.875 358.734C359.875 362.371 358.689 364.345 356.729 364.345ZM370.093 351.455H367.956L364.326 353.827V355.929L367.806 353.656H367.892V366H370.093V351.455ZM378.943 366.199C381.968 366.199 384.106 364.48 384.12 362.122C384.106 360.29 382.821 358.749 381.194 358.457V358.372C382.608 358.031 383.566 356.703 383.581 355.134C383.566 352.911 381.606 351.256 378.943 351.256C376.251 351.256 374.291 352.911 374.305 355.134C374.291 356.696 375.25 358.031 376.691 358.372V358.457C375.037 358.749 373.751 360.29 373.765 362.122C373.751 364.48 375.889 366.199 378.943 366.199ZM378.943 364.402C377.125 364.402 375.974 363.436 375.988 361.98C375.974 360.467 377.224 359.388 378.943 359.388C380.633 359.388 381.883 360.467 381.897 361.98C381.883 363.436 380.74 364.402 378.943 364.402ZM378.943 357.634C377.473 357.634 376.429 356.703 376.443 355.318C376.429 353.955 377.437 353.053 378.943 353.053C380.42 353.053 381.429 353.955 381.443 355.318C381.429 356.703 380.392 357.634 378.943 357.634Z" fill="white"/>
<path opacity="0.3" d="M477.399 366H486.973V364.118H480.425V364.011L483.315 360.986C485.979 358.294 486.739 357.009 486.739 355.382C486.739 353.045 484.835 351.256 482.094 351.256C479.374 351.256 477.385 353.017 477.385 355.673H479.48C479.473 354.111 480.482 353.088 482.051 353.088C483.528 353.088 484.651 353.997 484.651 355.446C484.651 356.732 483.884 357.655 482.321 359.31L477.399 364.409V366ZM494.729 366.241C498.088 366.241 500.055 363.5 500.055 358.734C500.055 354.004 498.06 351.256 494.729 351.256C491.391 351.256 489.402 353.997 489.395 358.734C489.395 363.493 491.362 366.234 494.729 366.241ZM494.729 364.345C492.761 364.345 491.575 362.371 491.575 358.734C491.582 355.112 492.768 353.116 494.729 353.116C496.682 353.116 497.875 355.112 497.875 358.734C497.875 362.371 496.689 364.345 494.729 364.345ZM508.093 351.455H505.956L502.326 353.827V355.929L505.806 353.656H505.892V366H508.093V351.455ZM516.865 351.256C513.811 351.227 511.815 353.422 511.815 356.178C511.822 358.955 513.832 360.957 516.353 360.957C517.895 360.957 519.216 360.205 519.961 358.983H520.075C520.068 362.328 518.811 364.281 516.68 364.281C515.288 364.281 514.393 363.429 514.109 362.186H511.943C512.262 364.537 514.081 366.199 516.68 366.199C520.061 366.199 522.177 363.294 522.177 358.202C522.17 352.889 519.457 351.277 516.865 351.256ZM516.872 353.102C518.555 353.102 519.798 354.53 519.798 356.128C519.805 357.747 518.491 359.168 516.829 359.168C515.16 359.168 513.953 357.832 513.946 356.149C513.946 354.459 515.203 353.102 516.872 353.102Z" fill="white"/>
<path opacity="0.3" d="M615.399 366H624.973V364.118H618.425V364.011L621.315 360.986C623.979 358.294 624.739 357.009 624.739 355.382C624.739 353.045 622.835 351.256 620.094 351.256C617.374 351.256 615.385 353.017 615.385 355.673H617.48C617.473 354.111 618.482 353.088 620.051 353.088C621.528 353.088 622.651 353.997 622.651 355.446C622.651 356.732 621.884 357.655 620.321 359.31L615.399 364.409V366ZM632.729 366.241C636.088 366.241 638.055 363.5 638.055 358.734C638.055 354.004 636.06 351.256 632.729 351.256C629.391 351.256 627.402 353.997 627.395 358.734C627.395 363.493 629.362 366.234 632.729 366.241ZM632.729 364.345C630.761 364.345 629.575 362.371 629.575 358.734C629.582 355.112 630.768 353.116 632.729 353.116C634.682 353.116 635.875 355.112 635.875 358.734C635.875 362.371 634.689 364.345 632.729 364.345ZM640.575 366H650.149V364.118H643.6V364.011L646.491 360.986C649.154 358.294 649.914 357.009 649.914 355.382C649.914 353.045 648.011 351.256 645.27 351.256C642.549 351.256 640.561 353.017 640.561 355.673H642.656C642.649 354.111 643.657 353.088 645.227 353.088C646.704 353.088 647.826 353.997 647.826 355.446C647.826 356.732 647.059 357.655 645.497 359.31L640.575 364.409V366ZM657.904 366.241C661.264 366.241 663.231 363.5 663.231 358.734C663.231 354.004 661.235 351.256 657.904 351.256C654.566 351.256 652.578 353.997 652.571 358.734C652.571 363.493 654.538 366.234 657.904 366.241ZM657.904 364.345C655.937 364.345 654.751 362.371 654.751 358.734C654.758 355.112 655.944 353.116 657.904 353.116C659.858 353.116 661.051 355.112 661.051 358.734C661.051 362.371 659.865 364.345 657.904 364.345Z" fill="white"/>
<path opacity="0.3" d="M756.399 366H765.973V364.118H759.425V364.011L762.315 360.986C764.979 358.294 765.739 357.009 765.739 355.382C765.739 353.045 763.835 351.256 761.094 351.256C758.374 351.256 756.385 353.017 756.385 355.673H758.48C758.473 354.111 759.482 353.088 761.051 353.088C762.528 353.088 763.651 353.997 763.651 355.446C763.651 356.732 762.884 357.655 761.321 359.31L756.399 364.409V366ZM773.729 366.241C777.088 366.241 779.055 363.5 779.055 358.734C779.055 354.004 777.06 351.256 773.729 351.256C770.391 351.256 768.402 353.997 768.395 358.734C768.395 363.493 770.362 366.234 773.729 366.241ZM773.729 364.345C771.761 364.345 770.575 362.371 770.575 358.734C770.582 355.112 771.768 353.116 773.729 353.116C775.682 353.116 776.875 355.112 776.875 358.734C776.875 362.371 775.689 364.345 773.729 364.345ZM781.575 366H791.149V364.118H784.6V364.011L787.491 360.986C790.154 358.294 790.914 357.009 790.914 355.382C790.914 353.045 789.011 351.256 786.27 351.256C783.549 351.256 781.561 353.017 781.561 355.673H783.656C783.649 354.111 784.657 353.088 786.227 353.088C787.704 353.088 788.826 353.997 788.826 355.446C788.826 356.732 788.059 357.655 786.497 359.31L781.575 364.409V366ZM799.359 351.455H797.221L793.592 353.827V355.929L797.072 353.656H797.157V366H799.359V351.455Z" fill="white"/>
<rect opacity="0.3" x="87" y="22" width="4" height="304" rx="2" fill="#4F5074"/>
<rect x="225" y="22" width="4" height="304" rx="2" fill="#5C5E85"/>
<rect opacity="0.3" x="363" y="22" width="4" height="304" rx="2" fill="#4F5074"/>
<rect opacity="0.3" x="501" y="22" width="4" height="304" rx="2" fill="#4F5074"/>
<rect opacity="0.3" x="639" y="22" width="4" height="304" rx="2" fill="#4F5074"/>
<rect opacity="0.3" x="777" y="22" width="4" height="304" rx="2" fill="#4F5074"/>
<path opacity="0.5" d="M24.7812 326.818H26.1165L26.1236 325.22C29.1278 325 30.8466 323.281 30.8466 320.98C30.8466 318.359 28.5099 317.344 26.6634 316.889L26.1449 316.754L26.1591 312.195C27.4872 312.372 28.3963 313.111 28.5312 314.276H30.6477C30.5909 312.109 28.8011 310.49 26.1662 310.277L26.1733 308.636H24.8381L24.831 310.291C22.2812 310.547 20.4134 312.138 20.4134 314.432C20.4134 316.456 21.8622 317.642 24.1989 318.274L24.8097 318.438L24.7955 323.274C23.4105 323.104 22.3381 322.351 22.2244 320.98H20.0227C20.1577 323.43 21.9261 325.007 24.7884 325.22L24.7812 326.818ZM26.1307 323.274L26.1449 318.807C27.5866 319.205 28.6733 319.73 28.6733 320.959C28.6733 322.202 27.6364 323.075 26.1307 323.274ZM24.8168 316.399C23.7585 316.087 22.5938 315.526 22.6009 314.304C22.6009 313.239 23.446 312.408 24.8239 312.202L24.8168 316.399ZM33.2702 325H42.8441V323.118H36.2958V323.011L39.1864 319.986C41.8498 317.294 42.6097 316.009 42.6097 314.382C42.6097 312.045 40.7063 310.256 37.9648 310.256C35.2447 310.256 33.256 312.017 33.256 314.673H35.3512C35.3441 313.111 36.3526 312.088 37.9222 312.088C39.3995 312.088 40.5217 312.997 40.5217 314.446C40.5217 315.732 39.7546 316.655 38.1921 318.31L33.2702 323.409V325ZM50.337 325.199C53.2631 325.199 55.3512 323.132 55.3441 320.298C55.3512 317.486 53.391 315.44 50.7418 315.44C49.6623 315.44 48.6609 315.852 48.0927 316.406H48.0075L48.4691 312.337H54.641V310.455H46.6438L45.8271 317.784L47.837 318.082C48.3839 317.592 49.364 317.259 50.2447 317.259C51.9705 317.273 53.2205 318.565 53.2205 320.341C53.2205 322.088 52.006 323.352 50.337 323.352C48.9308 323.352 47.8157 322.457 47.7021 321.207H45.5714C45.6566 323.523 47.6665 325.199 50.337 325.199Z" fill="white"/>
<path opacity="0.5" d="M24.7812 184.818H26.1165L26.1236 183.22C29.1278 183 30.8466 181.281 30.8466 178.98C30.8466 176.359 28.5099 175.344 26.6634 174.889L26.1449 174.754L26.1591 170.195C27.4872 170.372 28.3963 171.111 28.5312 172.276H30.6477C30.5909 170.109 28.8011 168.49 26.1662 168.277L26.1733 166.636H24.8381L24.831 168.291C22.2812 168.547 20.4134 170.138 20.4134 172.432C20.4134 174.456 21.8622 175.642 24.1989 176.274L24.8097 176.438L24.7955 181.274C23.4105 181.104 22.3381 180.351 22.2244 178.98H20.0227C20.1577 181.43 21.9261 183.007 24.7884 183.22L24.7812 184.818ZM26.1307 181.274L26.1449 176.807C27.5866 177.205 28.6733 177.73 28.6733 178.959C28.6733 180.202 27.6364 181.075 26.1307 181.274ZM24.8168 174.399C23.7585 174.087 22.5938 173.526 22.6009 172.304C22.6009 171.239 23.446 170.408 24.8239 170.202L24.8168 174.399ZM38.7887 168.455H36.6509L33.0217 170.827V172.929L36.5018 170.656H36.587V183H38.7887V168.455ZM47.7873 183.241C51.1467 183.241 53.114 180.5 53.114 175.734C53.114 171.004 51.1183 168.256 47.7873 168.256C44.4492 168.256 42.4606 170.997 42.4535 175.734C42.4535 180.493 44.4208 183.234 47.7873 183.241ZM47.7873 181.345C45.82 181.345 44.6339 179.371 44.6339 175.734C44.641 172.112 45.8271 170.116 47.7873 170.116C49.7404 170.116 50.9336 172.112 50.9336 175.734C50.9336 179.371 49.7475 181.345 47.7873 181.345ZM60.6974 183.241C64.0568 183.241 66.0241 180.5 66.0241 175.734C66.0241 171.004 64.0284 168.256 60.6974 168.256C57.3594 168.256 55.3707 170.997 55.3636 175.734C55.3636 180.493 57.331 183.234 60.6974 183.241ZM60.6974 181.345C58.7301 181.345 57.544 179.371 57.544 175.734C57.5511 172.112 58.7372 170.116 60.6974 170.116C62.6506 170.116 63.8438 172.112 63.8438 175.734C63.8438 179.371 62.6577 181.345 60.6974 181.345Z" fill="white"/>
<path opacity="0.5" d="M24.7812 42.8182H26.1165L26.1236 41.2202C29.1278 41 30.8466 39.2812 30.8466 36.9801C30.8466 34.3594 28.5099 33.3438 26.6634 32.8892L26.1449 32.7543L26.1591 28.1946C27.4872 28.3722 28.3963 29.1108 28.5312 30.2756H30.6477C30.5909 28.1094 28.8011 26.4901 26.1662 26.277L26.1733 24.6364H24.8381L24.831 26.2912C22.2812 26.5469 20.4134 28.1378 20.4134 30.4318C20.4134 32.456 21.8622 33.642 24.1989 34.2741L24.8097 34.4375L24.7955 39.2741C23.4105 39.1037 22.3381 38.3509 22.2244 36.9801H20.0227C20.1577 39.4304 21.9261 41.0071 24.7884 41.2202L24.7812 42.8182ZM26.1307 39.2741L26.1449 34.8068C27.5866 35.2045 28.6733 35.7301 28.6733 36.9588C28.6733 38.2017 27.6364 39.0753 26.1307 39.2741ZM24.8168 32.3991C23.7585 32.0866 22.5938 31.5256 22.6009 30.304C22.6009 29.2386 23.446 28.4077 24.8239 28.2017L24.8168 32.3991ZM33.2702 41H42.8441V39.1179H36.2958V39.0114L39.1864 35.9858C41.8498 33.294 42.6097 32.0085 42.6097 30.3821C42.6097 28.0455 40.7063 26.2557 37.9648 26.2557C35.2447 26.2557 33.256 28.017 33.256 30.6733H35.3512C35.3441 29.1108 36.3526 28.0881 37.9222 28.0881C39.3995 28.0881 40.5217 28.9972 40.5217 30.446C40.5217 31.7315 39.7546 32.6548 38.1921 34.3097L33.2702 39.4091V41ZM50.5998 41.2415C53.9592 41.2415 55.9265 38.5 55.9265 33.7344C55.9265 29.0043 53.9308 26.2557 50.5998 26.2557C47.2617 26.2557 45.2731 28.9972 45.266 33.7344C45.266 38.4929 47.2333 41.2344 50.5998 41.2415ZM50.5998 39.3452C48.6325 39.3452 47.4464 37.3707 47.4464 33.7344C47.4535 30.1122 48.6396 28.1165 50.5998 28.1165C52.5529 28.1165 53.7461 30.1122 53.7461 33.7344C53.7461 37.3707 52.56 39.3452 50.5998 39.3452ZM63.5099 41.2415C66.8693 41.2415 68.8366 38.5 68.8366 33.7344C68.8366 29.0043 66.8409 26.2557 63.5099 26.2557C60.1719 26.2557 58.1832 28.9972 58.1761 33.7344C58.1761 38.4929 60.1435 41.2344 63.5099 41.2415ZM63.5099 39.3452C61.5426 39.3452 60.3565 37.3707 60.3565 33.7344C60.3636 30.1122 61.5497 28.1165 63.5099 28.1165C65.4631 28.1165 66.6562 30.1122 66.6562 33.7344C66.6562 37.3707 65.4702 39.3452 63.5099 39.3452Z" fill="white"/>
<path d="M6 264H43.6649C44.759 264 45.8479 263.85 46.9014 263.555L109.545 246.01L159.806 226.012C160.626 225.686 161.48 225.451 162.352 225.312L227 215" stroke="url(#paint0_linear)" stroke-width="12" stroke-linecap="square" stroke-linejoin="round"/>
<path d="M6 304H43.5744C44.6713 304 45.763 303.85 46.8191 303.553L106.633 286.754C108.399 286.258 110.255 286.173 112.059 286.507L158.408 295.076C159.922 295.356 161.475 295.342 162.984 295.035L227 282" stroke="url(#paint1_linear)" stroke-width="12" stroke-linecap="square" stroke-linejoin="round"/>
<circle cx="227" cy="285" r="17" fill="white"/>
<path d="M227.084 295L229.626 280.646C232.048 280.646 232.812 280.913 232.923 282.002C232.923 282.002 234.548 281.393 235.367 280.157C232.169 278.669 228.955 278.602 228.955 278.602L227.08 280.896L227.084 280.895L225.209 278.602C225.209 278.602 221.996 278.669 218.798 280.157C219.617 281.393 221.242 282.001 221.242 282.001C221.353 280.912 222.116 280.646 224.523 280.644L227.084 295Z" fill="#E82127"/>
<path d="M227.083 277.94C229.668 277.92 232.628 278.342 235.657 279.668C236.062 278.936 236.166 278.612 236.166 278.612C232.854 277.297 229.753 276.846 227.083 276.835C224.412 276.846 221.311 277.297 218 278.612C218 278.612 218.148 279.011 218.509 279.668C221.537 278.342 224.497 277.92 227.083 277.94H227.083Z" fill="#E82127"/>
<rect x="249" y="271" width="66" height="28" rx="14" fill="#FB6232"/>
<path d="M262.199 286.576V284.848H257.639V286.576H262.199ZM265.637 283.632C265.525 283.28 265.461 282.928 265.461 282.576C265.461 281.536 266.037 280.592 267.253 280.592C268.357 280.592 269.045 281.312 269.045 282.416C269.045 283.824 268.133 284.672 266.757 285.872C265.173 287.296 264.325 287.92 263.429 288.512V290H271.317V288.336H268.085C267.525 288.336 267.125 288.352 266.821 288.352H266.389V288.336L266.885 287.952C268.789 286.544 271.061 284.736 271.061 282.304C271.061 280.272 269.637 278.928 267.413 278.928C265.093 278.928 263.573 280.32 263.573 282.224C263.573 282.736 263.653 283.072 263.765 283.376L265.637 283.632ZM274.441 285.584C274.681 284.688 275.321 284.08 276.361 284.08C277.753 284.08 278.377 285.024 278.377 286.304C278.377 287.632 277.769 288.56 276.377 288.56C275.241 288.56 274.569 287.84 274.377 286.88L272.489 287.376C272.857 289.168 274.345 290.192 276.393 290.192C279.081 290.192 280.393 288.4 280.393 286.208C280.393 283.92 278.953 282.528 276.825 282.528C275.641 282.528 274.857 283.024 274.649 283.264L275.033 280.816H279.689L279.849 279.12H273.561L272.729 285.2L274.441 285.584ZM286.577 282.544C286.577 280.96 286.161 278.992 284.017 278.992C281.969 278.992 281.441 280.864 281.441 282.544C281.441 284.288 282.097 285.968 284.017 285.968C285.857 285.968 286.577 284.32 286.577 282.544ZM285.121 282.544C285.121 283.776 284.817 284.688 283.985 284.688C283.153 284.688 282.881 283.808 282.881 282.544C282.881 281.28 283.169 280.288 283.985 280.288C284.769 280.288 285.121 281.136 285.121 282.544ZM294.801 286.688C294.801 285.104 294.385 283.136 292.241 283.136C290.193 283.136 289.665 285.008 289.665 286.688C289.665 288.432 290.321 290.112 292.241 290.112C294.081 290.112 294.801 288.464 294.801 286.688ZM293.345 286.688C293.345 287.92 293.041 288.832 292.209 288.832C291.377 288.832 291.105 287.952 291.105 286.688C291.105 285.424 291.393 284.432 292.209 284.432C292.993 284.432 293.345 285.28 293.345 286.688ZM290.401 279.12L283.921 290H285.601L292.081 279.12H290.401ZM299.237 286.368L303.045 290.16L306.853 286.368V284.368L303.893 287.312V278.608H302.197V287.312L299.237 284.368V286.368Z" fill="white"/>
<circle cx="227" cy="216" r="17" fill="white"/>
<path d="M231.492 223.275C230.527 224.223 229.463 224.075 228.448 223.628C227.37 223.172 226.384 223.144 225.245 223.628C223.826 224.248 223.073 224.068 222.219 223.275C217.395 218.249 218.107 210.593 223.589 210.305C224.919 210.377 225.85 211.049 226.633 211.105C227.797 210.866 228.911 210.179 230.157 210.269C231.654 210.392 232.774 210.99 233.521 212.065C230.442 213.939 231.172 218.046 234 219.199C233.434 220.703 232.708 222.189 231.49 223.288L231.492 223.275ZM226.526 210.251C226.382 208.018 228.171 206.18 230.228 206C230.511 208.576 227.914 210.503 226.526 210.251Z" fill="black"/>
<rect x="249" y="202" width="66" height="28" rx="14" fill="#19AE31"/>
<path d="M261.975 216.264H265.527V214.568H261.975V210.968H260.263V214.568H256.695V216.264H260.263V219.88H261.975V216.264ZM270.996 210.12H269.428C269.396 210.968 269.124 211.592 268.596 211.976C268.164 212.28 267.62 212.44 266.74 212.44H266.164V213.896H269.156V221H270.996V210.12ZM274.746 216.584C274.986 215.688 275.626 215.08 276.666 215.08C278.058 215.08 278.682 216.024 278.682 217.304C278.682 218.632 278.074 219.56 276.682 219.56C275.546 219.56 274.874 218.84 274.682 217.88L272.794 218.376C273.162 220.168 274.65 221.192 276.698 221.192C279.386 221.192 280.698 219.4 280.698 217.208C280.698 214.92 279.258 213.528 277.13 213.528C275.946 213.528 275.162 214.024 274.954 214.264L275.338 211.816H279.994L280.154 210.12H273.866L273.034 216.2L274.746 216.584ZM286.882 213.544C286.882 211.96 286.466 209.992 284.322 209.992C282.274 209.992 281.746 211.864 281.746 213.544C281.746 215.288 282.402 216.968 284.322 216.968C286.162 216.968 286.882 215.32 286.882 213.544ZM285.426 213.544C285.426 214.776 285.122 215.688 284.29 215.688C283.458 215.688 283.186 214.808 283.186 213.544C283.186 212.28 283.474 211.288 284.29 211.288C285.074 211.288 285.426 212.136 285.426 213.544ZM295.106 217.688C295.106 216.104 294.69 214.136 292.546 214.136C290.498 214.136 289.97 216.008 289.97 217.688C289.97 219.432 290.626 221.112 292.546 221.112C294.386 221.112 295.106 219.464 295.106 217.688ZM293.65 217.688C293.65 218.92 293.346 219.832 292.514 219.832C291.682 219.832 291.41 218.952 291.41 217.688C291.41 216.424 291.698 215.432 292.514 215.432C293.298 215.432 293.65 216.28 293.65 217.688ZM290.706 210.12L284.226 221H285.906L292.386 210.12H290.706ZM299.542 215.24L302.502 212.296V221H304.198V212.296L307.158 215.24V213.24L303.35 209.448L299.542 213.24V215.24Z" fill="white"/>
<defs>
<linearGradient id="paint0_linear" x1="245.943" y1="217.525" x2="-4.19999" y2="217.525" gradientUnits="userSpaceOnUse">
<stop stop-color="#52FF00"/>
<stop offset="1" stop-color="#9B20C6"/>
</linearGradient>
<linearGradient id="paint1_linear" x1="245.417" y1="286" x2="-4.17762" y2="286" gradientUnits="userSpaceOnUse">
<stop stop-color="#5F49F2"/>
<stop offset="1" stop-color="#891212"/>
</linearGradient>
</defs>
</svg>
